<?xml version="1.0" encoding="UTF-8" standalone="no"?>
<svg
   xmlns:dc="http://purl.org/dc/elements/1.1/"
   xmlns:cc="http://creativecommons.org/ns#"
   xmlns:rdf="http://www.w3.org/1999/02/22-rdf-syntax-ns#"
   xmlns:svg="http://www.w3.org/2000/svg"
   xmlns="http://www.w3.org/2000/svg"
   xmlns:sodipodi="http://sodipodi.sourceforge.net/DTD/sodipodi-0.dtd"
   xmlns:inkscape="http://www.inkscape.org/namespaces/inkscape"
   width="15mm"
   height="15mm"
   viewBox="0 0 15 15"
   version="1.1"
   id="svg8"
   inkscape:version="1.0.2-2 (e86c870879, 2021-01-15)"
   sodipodi:docname="edmodo.svg">
  <defs
     id="defs2" />
  <sodipodi:namedview
     id="base"
     pagecolor="#ffffff"
     bordercolor="#666666"
     borderopacity="1.0"
     inkscape:pageopacity="0.0"
     inkscape:pageshadow="2"
     inkscape:zoom="15.839192"
     inkscape:cx="27.551248"
     inkscape:cy="2.397822"
     inkscape:document-units="mm"
     inkscape:current-layer="layer1"
     inkscape:document-rotation="0"
     showgrid="false"
     inkscape:window-width="1920"
     inkscape:window-height="1001"
     inkscape:window-x="-11"
     inkscape:window-y="-11"
     inkscape:window-maximized="1"
     units="mm" />
  <metadata
     id="metadata5">
    <rdf:RDF>
      <cc:Work
         rdf:about="">
        <dc:format>image/svg+xml</dc:format>
        <dc:type
           rdf:resource="http://purl.org/dc/dcmitype/StillImage" />
        <dc:title></dc:title>
      </cc:Work>
    </rdf:RDF>
  </metadata>
  <g
     inkscape:label="Шар 1"
     inkscape:groupmode="layer"
     id="layer1">
    <path
       id="rect1314"
       style="fill:#ffffdb;fill-opacity:1;stroke-width:1.38999;stroke-linejoin:bevel"
       d="M 1.9078366,0 C 0.85191297,0 0,0.84925952 0,1.905183 v 11.18698 C 0,14.148086 0.85191297,15 1.9078366,15 H 13.094816 C 14.150741,15 15,14.148086 15,13.092163 V 1.905183 C 15,0.84925952 14.150741,0 13.094816,0 Z m 5.0336105,1.5681938 h 0.5413055 0.543959 L 8.0107905,1.714134 c -0.0099,0.079059 -0.071988,0.6874667 -0.1379799,1.3532639 -0.065832,0.665797 -0.1282191,1.2692533 -0.1379798,1.3399964 l -0.015921,0.127366 H 7.4800992 c -0.1318248,0 -0.2414647,-0.006 -0.2414647,-0.015921 0,-0.022645 -0.2678585,-2.6990638 -0.2839201,-2.8365469 z m 3.3221299,0.514771 c 0.01653,0 0.909465,0.4782701 0.931364,0.4988501 0.0067,0.00496 -0.259146,0.3998421 -0.586415,0.8809482 -0.327202,0.481106 -0.7021028,1.0356322 -0.8331858,1.2312047 -0.131495,0.195588 -0.247915,0.3563747 -0.260038,0.3555634 -0.013248,-7.943e-4 -0.1025329,-0.043064 -0.1990098,-0.092871 -0.096431,-0.049807 -0.1822018,-0.1098438 -0.191049,-0.132673 -0.00991,-0.02285 0.026816,-0.1355927 0.074297,-0.249425 0.049448,-0.1137964 0.1948704,-0.4589166 0.323722,-0.7668494 0.12918,-0.3079313 0.310924,-0.743796 0.405979,-0.9685124 0.09511,-0.224702 0.2047656,-0.4854031 0.2441176,-0.5811073 0.03938,-0.095768 0.07947,-0.1751283 0.09022,-0.1751283 z m -5.5643022,0.00265 c 0.013246,-3.804e-4 0.095362,0.185068 0.191049,0.4139395 0.09544,0.2288705 0.2141393,0.5047616 0.2600389,0.6129531 0.046162,0.1081735 0.2095993,0.4961883 0.3635238,0.862374 0.1541556,0.366185 0.2984396,0.7111017 0.3210685,0.764196 l 0.039802,0.095524 -0.2016627,0.1061383 c -0.1118145,0.059215 -0.2127186,0.1087916 -0.2228907,0.1087916 -0.0099,0 -0.3816384,-0.5376607 -0.827879,-1.1967096 C 4.1760834,3.1937566 3.8071271,2.6327632 3.8050594,2.6083495 3.8034055,2.5807246 3.9673964,2.4732244 4.2402264,2.3244295 4.4815189,2.1927692 4.6890053,2.0860033 4.6992748,2.0856182 Z m 2.8206263,3.8236336 c 0.1793879,-0.00757 0.3613422,-0.00315 0.5466124,0.013273 0.7264673,0.064343 1.2499985,0.2614159 1.6398377,0.6182558 0.4812548,0.4405004 0.7319568,1.059638 0.8013438,1.9847869 0.02942,0.3574046 -0.0015,1.1665351 -0.04246,1.2073241 -0.0099,0.0099 -0.6693688,0.0414 -1.4647092,0.07164 -3.0096587,0.114787 -3.8352272,0.152554 -3.8607819,0.177781 -0.046829,0.04631 0.087533,0.6199878 0.2016628,0.8544138 0.36923,0.76155 1.0918986,1.114452 2.2819742,1.114452 0.9004384,0 1.6758904,-0.181967 2.6587651,-0.623562 0.04878,-0.02198 0.362412,1.221454 0.323722,1.284274 -0.05144,0.0837 -0.7351148,0.42127 -1.0826108,0.533345 -0.3687012,0.11893 -0.775377,0.206517 -1.1648684,0.254732 -0.3436896,0.04251 -1.3176419,0.03505 -1.6186095,-0.01331 l -0.00265,0.0027 C 5.1710776,13.142172 4.2601095,12.275907 4.0279498,10.815496 3.9829602,10.533285 3.9849358,9.7378752 4.0306033,9.3614011 4.1043733,8.7497731 4.3070962,8.1109868 4.5772157,7.6393065 5.1759109,6.5925491 6.2641856,5.9621975 7.5199011,5.9092518 Z m -0.05307,1.4222537 c -0.3275327,0.00321 -0.6518434,0.028652 -0.8199179,0.0743 C 6.2541815,7.5116604 5.9823912,7.6623627 5.7394305,7.9073059 5.3898666,8.2597298 5.2145637,8.6772801 5.134442,9.3560941 5.1147759,9.5119032 5.1209783,9.5287795 5.1689369,9.5285689 5.2016967,9.5284364 5.7285898,9.4601865 6.344419,9.3773218 6.9602477,9.2942877 7.9403415,9.1629043 8.5229083,9.0854414 9.1055074,9.008035 9.5949742,8.9353236 9.6081732,8.9235805 9.6515102,8.8853779 9.5392692,8.4582586 9.4277376,8.2310278 9.2188969,7.8068354 8.8260798,7.5120481 8.3053248,7.3898815 8.1264915,7.3479511 7.7943654,7.3283013 7.4668318,7.3315055 Z" />
  </g>
</svg>
