<?xml version="1.0" encoding="UTF-8" standalone="no"?>
<svg
   xmlns:dc="http://purl.org/dc/elements/1.1/"
   xmlns:cc="http://creativecommons.org/ns#"
   xmlns:rdf="http://www.w3.org/1999/02/22-rdf-syntax-ns#"
   xmlns:svg="http://www.w3.org/2000/svg"
   xmlns="http://www.w3.org/2000/svg"
   xmlns:sodipodi="http://sodipodi.sourceforge.net/DTD/sodipodi-0.dtd"
   xmlns:inkscape="http://www.inkscape.org/namespaces/inkscape"
   width="15mm"
   height="15mm"
   viewBox="0 0 15 15"
   version="1.1"
   id="svg8"
   inkscape:version="1.0.2-2 (e86c870879, 2021-01-15)"
   sodipodi:docname="instagram.svg">
  <defs
     id="defs2" />
  <sodipodi:namedview
     id="base"
     pagecolor="#ffffff"
     bordercolor="#666666"
     borderopacity="1.0"
     inkscape:pageopacity="0.0"
     inkscape:pageshadow="2"
     inkscape:zoom="5.6"
     inkscape:cx="32.02444"
     inkscape:cy="52.94406"
     inkscape:document-units="mm"
     inkscape:current-layer="layer1"
     inkscape:document-rotation="0"
     showgrid="false"
     inkscape:window-width="1920"
     inkscape:window-height="1001"
     inkscape:window-x="-11"
     inkscape:window-y="-11"
     inkscape:window-maximized="1"
     units="mm" />
  <metadata
     id="metadata5">
    <rdf:RDF>
      <cc:Work
         rdf:about="">
        <dc:format>image/svg+xml</dc:format>
        <dc:type
           rdf:resource="http://purl.org/dc/dcmitype/StillImage" />
        <dc:title />
      </cc:Work>
    </rdf:RDF>
  </metadata>
  <g
     inkscape:label="Шар 1"
     inkscape:groupmode="layer"
     id="layer1">
    <g
       id="g1273"
       transform="matrix(0.03022988,0,0,0.03022988,-0.26770238,-0.26880409)"
       style="fill:#fefffd;fill-opacity:1">
      <path
         d="m 505,257 c 0,35.8 0.1,71.6 0,107.5 -0.2,52 -24.4,90.5 -67.6,117.7 C 412.1,498 384,505 354.2,505 289,505 223.9,505.3 158.7,504.9 113.4,504.6 74.4,488.6 43.5,455 24.4,434.2 13,409.7 9.7,381.4 9,375.4 8.9,369.5 8.9,363.5 8.9,292.2 8.8,220.9 8.9,149.6 9.2,97.5 33.4,59 76.6,31.8 102.1,15.9 130.3,9 160.3,9 c 65,0 130,-0.3 195,0.1 45.5,0.3 84.6,16.4 115.5,50.2 18.9,20.7 30.2,45.2 33.4,73.2 1.3,11 0.7,22 0.8,32.9 0.1,30.6 0,61.1 0,91.6 z m -459,0 c 0,36.7 -0.1,73.3 0,110 0.1,25.2 9.3,46.9 26.5,64.9 23.1,24.1 51.9,35.8 85,36 65.7,0.4 131.3,0.1 197,0.1 21.2,0 41.4,-4.6 59.8,-15.2 34.4,-19.7 53.8,-48.7 53.8,-89.3 0,-72.2 0,-144.3 0,-216.5 0,-25 -9.1,-46.6 -26.2,-64.5 C 419,58.3 390.1,46.4 357.1,46.2 290.7,45.7 224.4,46 158,46 137.3,46 117.7,50.9 99.7,61.1 65.4,80.9 45.9,109.9 46,150.5 c 0,35.5 0,71 0,106.5 z"
         fill="#a7a7a7"
         id="path1267"
         style="fill:#fefffd;fill-opacity:1" />
      <path
         d="M 257.3,363 C 192.7,363 140.9,311.4 141,247 141.1,184.3 193.6,132.9 257.7,133 322.1,133 374.1,184.7 374,248.5 373.9,311.7 321.6,363 257.3,363 Z m 0,-37 c 43.9,0 79.7,-34.9 79.7,-77.8 0,-43.1 -35.5,-78.2 -79.3,-78.2 -43.9,0 -79.7,34.9 -79.7,77.8 0,43.1 35.5,78.2 79.3,78.2 z"
         fill="#a7a7a7"
         id="path1269"
         style="fill:#fefffd;fill-opacity:1" />
      <path
         d="m 363,123.6 c 0,-14.2 10.9,-25.6 24.5,-25.6 13.6,0 24.5,11.5 24.5,25.6 0,13.9 -10.9,25.3 -24.3,25.4 -13.6,0.1 -24.7,-11.2 -24.7,-25.4 z"
         fill="#a7a7a7"
         id="path1271"
         style="fill:#fefffd;fill-opacity:1" />
    </g>
  </g>
</svg>
