<?xml version="1.0" encoding="UTF-8" standalone="no"?>
<svg
   xmlns:dc="http://purl.org/dc/elements/1.1/"
   xmlns:cc="http://creativecommons.org/ns#"
   xmlns:rdf="http://www.w3.org/1999/02/22-rdf-syntax-ns#"
   xmlns:svg="http://www.w3.org/2000/svg"
   xmlns="http://www.w3.org/2000/svg"
   xmlns:sodipodi="http://sodipodi.sourceforge.net/DTD/sodipodi-0.dtd"
   xmlns:inkscape="http://www.inkscape.org/namespaces/inkscape"
   width="1200"
   height="400"
   viewBox="0 0 317.5 105.83333"
   version="1.1"
   id="svg8"
   inkscape:version="1.0.2-2 (e86c870879, 2021-01-15)"
   sodipodi:docname="art.svg">
  <defs
     id="defs2" />
  <sodipodi:namedview
     id="base"
     pagecolor="#ffffff"
     bordercolor="#666666"
     borderopacity="1.0"
     inkscape:pageopacity="0.0"
     inkscape:pageshadow="2"
     inkscape:zoom="0.49497475"
     inkscape:cx="51.548714"
     inkscape:cy="-224.95195"
     inkscape:document-units="mm"
     inkscape:current-layer="layer1"
     inkscape:document-rotation="0"
     showgrid="false"
     inkscape:window-width="1920"
     inkscape:window-height="1001"
     inkscape:window-x="-11"
     inkscape:window-y="-11"
     inkscape:window-maximized="1"
     units="px" />
  <metadata
     id="metadata5">
    <rdf:RDF>
      <cc:Work
         rdf:about="">
        <dc:format>image/svg+xml</dc:format>
        <dc:type
           rdf:resource="http://purl.org/dc/dcmitype/StillImage" />
        <dc:title />
      </cc:Work>
    </rdf:RDF>
  </metadata>
  <g
     inkscape:label="Шар 1"
     inkscape:groupmode="layer"
     id="layer1">
    <rect
       style="fill:#9a5ddb;fill-opacity:1;stroke:none;stroke-width:0.51773;stroke-linejoin:bevel"
       id="rect1717"
       width="158.75"
       height="105.83334"
       x="0"
       y="2.9928775e-05" />
    <path
       style="fill:#8649c7;fill-opacity:1;stroke:none;stroke-width:0.369206px;stroke-linecap:butt;stroke-linejoin:miter;stroke-opacity:1"
       d="m 60.088045,2.9928775e-5 c 0,0 -2.065857,5.496339971225 -3.800314,6.955298971225 -3.791996,3.1896751 -9.847511,4.0104921 -13.336966,8.2459681 -3.489454,4.235477 -2.902246,13.051756 -6.094852,16.133425 -3.035453,2.92996 -9.041989,1.201615 -11.902874,4.302248 -6.76573,7.332705 -3.649217,11.313363 -7.242114,15.05786 -1.938357,2.020128 -4.884266,2.70803 -7.32877,4.10259 C 10.04142,54.991803 9.7104114,55.19993 9.3932453,55.427301 7.054109,57.104182 0,62.024073 0,62.024073 V 2.9928775e-5 Z"
       id="path1053"
       sodipodi:nodetypes="cszsssssccc" />
    <g
       id="g934"
       transform="matrix(0.68212687,0.25297983,-0.25297983,0.68212687,80.514386,-14.36273)">
      <path
         style="fill:#011e62;fill-opacity:1;stroke-width:0.265;stroke-miterlimit:4;stroke-dasharray:none"
         d="m -58.660814,110.20637 c -4.60749,-1.22515 -7.86219,-2.90141 -10.51271,-5.41433 -2.87586,-2.72656 -4.14348,-5.701561 -3.78385,-8.880341 0.34193,-3.02223 1.21533,-4.35132 4.62885,-7.04399 2.47781,-1.95454 3.18542,-2.98174 3.18542,-4.62408 0,-1.64234 -0.70761,-2.66954 -3.18542,-4.62408 -3.72589,-2.939068 -4.6206,-4.512021 -4.59364,-8.075921 0.0226,-2.987431 0.73899,-4.698418 2.94745,-7.039498 2.63985,-2.798383 6.08139,-4.742418 10.83351,-6.119567 1.79605,-0.52049 2.64178,-0.596434 6.43352,-0.577705 3.94071,0.01947 4.59183,0.09043 6.68974,0.729059 7.86723,2.394895 13.87257,7.499896 17.22984,14.646701 l 0.76854,1.636036 2.27417,-1.931367 c 3.57667,-3.037534 7.15831,-5.662576 8.90576,-6.527174 1.32684,-0.656488 1.72621,-0.747606 2.30771,-0.526517 0.89611,0.3407 1.13144,1.269688 0.62729,2.476292 -0.85876,2.055311 -4.77813,7.310436 -9.86994,13.233731 -2.56372,2.98236 -2.57991,3.01729 -2.84672,6.13959 -0.19194,2.2462 -1.32472,5.95795 -2.57981,8.45315 -3.39199,6.743511 -9.25564,11.570101 -16.75971,13.795571 -2.00208,0.59375 -3.01319,0.72224 -6.35,0.80691 -3.54141,0.0899 -4.22515,0.0325 -6.35,-0.53247 z m 12.3816,-2.38502 c 6.78566,-2.02946 12.03027,-6.44707 15.22117,-12.821001 1.13189,-2.26099 2.68909,-7.27598 2.3611,-7.60397 -0.0527,-0.0527 -1.92515,1.87875 -4.16101,4.29211 -3.58935,3.87429 -4.13278,4.58132 -4.6426,6.04034 -1.05214,3.011031 -2.86627,5.047671 -5.58068,6.265161 -1.98227,0.88911 -6.43249,1.00087 -9.38445,0.23569 -2.55727,-0.66287 -2.9442,-0.91036 -2.83507,-1.81339 0.0639,-0.52858 0.31434,-0.72618 1.27309,-1.00441 1.50193,-0.43585 1.92547,-1.12122 2.61001,-4.223531 0.66327,-3.00588 1.13301,-4.09763 2.33595,-5.42915 1.098,-1.21536 2.26534,-1.86875 4.174,-2.33629 1.11539,-0.27323 1.70438,-0.69558 3.83646,-2.75103 2.37148,-2.28626 7.51226,-7.0372 9.9988,-9.240583 0.61541,-0.545325 1.11892,-1.143996 1.11892,-1.330381 0,-0.51814 -1.7373,-4.02829 -2.6868,-5.428575 -3.27844,-4.834935 -8.35218,-8.506758 -13.98195,-10.118613 -2.86237,-0.819527 -7.96823,-1.005718 -10.74867,-0.391964 -6.24653,1.378861 -11.64874,5.021476 -13.06887,8.812103 -0.62736,1.674541 -0.66138,2.950566 -0.12543,4.704552 0.48105,1.574346 1.24839,2.482579 3.75605,4.445721 2.85963,2.23868 3.78276,3.73206 3.78276,6.11949 0,2.38742 -0.92313,3.8808 -3.78276,6.11948 -2.50766,1.96315 -3.275,2.87138 -3.75605,4.44573 -0.72721,2.37994 -0.30166,4.51451 1.36894,6.866561 1.70782,2.40446 5.93257,5.02412 10.00632,6.20468 2.72928,0.79093 2.85383,0.80392 6.87917,0.71718 3.07993,-0.0664 4.09639,-0.19713 6.0316,-0.77591 z m -16.54944,-6.79503 c -2.00478,-1.058341 -2.98818,-3.596471 -2.19657,-5.669281 1.11324,-2.91498 4.59584,-4.10522 7.07402,-2.41767 1.37331,0.93517 1.8907,1.85733 2.0163,3.59371 0.0975,1.34869 0.0132,1.75361 -0.57443,2.75627 -1.23117,2.100831 -4.12391,2.895951 -6.31932,1.736971 z m 4.0559,-2.342551 c 1.9804,-1.9804 -0.0976,-5.31764 -2.65219,-4.25948 -1.19346,0.49435 -1.72176,1.24157 -1.72176,2.43526 0,0.86626 0.15965,1.20692 0.85806,1.83095 1.17458,1.04948 2.46215,1.04702 3.51589,-0.007 z m 18.09807,-17.58122 c -1.57857,-0.96905 -2.33115,-2.47847 -2.19237,-4.39712 0.19275,-2.664663 1.98949,-4.296817 4.73012,-4.296817 3.68677,0 5.93405,4.196134 3.87063,7.227237 -0.98013,1.43979 -1.86834,1.92758 -3.69371,2.02851 -1.38927,0.0768 -1.81935,-0.0122 -2.71467,-0.56181 z m 4.18953,-2.12804 c 0.945,-0.87578 1.14611,-1.85442 0.6115,-2.97551 -0.49189,-1.031517 -1.8322,-1.738262 -2.83557,-1.495196 -1.17498,0.284638 -2.09221,1.395392 -2.09221,2.533637 0,2.221179 2.70153,3.433579 4.31628,1.937069 z m -27.46733,-1.58667 c -1.02243,-0.454427 -1.85404,-1.366633 -2.36862,-2.598178 -1.31772,-3.153744 1.03898,-6.444141 4.55653,-6.361784 4.6757,0.109473 6.31544,6.338653 2.28961,8.697945 -1.23726,0.725086 -3.17986,0.838763 -4.47752,0.262017 z m 3.85682,-2.516567 c 2.21873,-2.218735 -0.85835,-5.706753 -3.37611,-3.826975 -0.39156,0.292341 -0.82035,0.856815 -0.95288,1.254388 -0.85101,2.553055 2.41037,4.491201 4.32899,2.572587 z m 8.75842,-1.259067 c -2.09797,-1.033837 -3.07504,-4.066288 -2.0239,-6.281394 0.76116,-1.604026 2.01814,-2.372426 4.06384,-2.484241 1.49611,-0.08177 1.88198,-0.0053 2.66874,0.528902 1.14329,0.776286 2.00785,2.032006 2.23587,3.24749 0.36437,1.942238 -0.89319,4.330181 -2.67175,5.073309 -1.16287,0.485881 -3.19744,0.445852 -4.2728,-0.08407 z m 3.78487,-2.090248 c 0.95616,-0.626501 1.3135,-1.959933 0.83324,-3.109343 -0.46538,-1.113815 -1.10687,-1.499194 -2.4955,-1.499194 -2.23723,0 -3.2994,2.64039 -1.72376,4.285001 0.82913,0.865429 2.33883,1.009681 3.38602,0.323536 z m 3.13039,30.688993 c 1.67666,-0.5713 3.7038,-2.451711 4.53334,-4.205211 0.37109,-0.78442 0.67471,-1.64458 0.67471,-1.91146 0,-0.26689 -0.9867,-1.46682 -2.19266,-2.66651 l -2.19265,-2.18126 -1.25886,0.37886 c -2.63861,0.7941 -3.73178,2.27441 -4.51361,6.11201 -0.23717,1.16417 -0.71835,2.675371 -1.06929,3.358241 -0.44103,0.85816 -0.54229,1.28067 -0.3279,1.36817 0.78252,0.3194 5.18185,0.14414 6.34692,-0.25284 z m 16.16256,-18.776371 c 5.84614,-6.659265 12.0556,-14.501327 11.73567,-14.821255 -0.0549,-0.05495 -1.4189,0.889897 -3.031,2.099665 -4.81066,3.610071 -10.25959,8.32228 -17.44131,15.0832 l -4.529,4.26362 1.75088,1.91759 1.75087,1.9176 3.01701,-3.10589 c 1.65936,-1.70825 4.69545,-5.01778 6.74688,-7.35453 z"
         id="path864" />
      <path
         style="opacity:0.998;fill:#e567a1;fill-opacity:1;stroke-width:15.2716;stroke-dasharray:15.2716, 15.2716"
         d="m -225.6996,405.78825 c -17.16028,-5.48078 -32.40733,-16.62015 -37.69248,-27.53782 -6.62652,-13.68857 -4.40934,-20.83753 11.13203,-35.89343 20.54495,-19.90318 20.45927,-28.37736 -0.49157,-48.61992 -13.06547,-12.62377 -13.55024,-13.44341 -13.55024,-22.91086 0,-11.98931 6.20837,-21.11384 20.59488,-30.26862 16.09696,-10.24322 28.1896,-13.15721 50.6275,-12.19982 17.15528,0.73198 21.47311,1.69833 33.52583,7.5032 16.75587,8.07001 34.73184,25.31429 42.37315,40.64839 l 5.41027,10.85701 -5.55514,5.81269 -5.55513,5.81269 -1.18974,-8.55766 c -2.08933,-15.02826 -14.78342,-21.85862 -27.96019,-15.04465 -6.66088,3.44447 -8.22571,6.69 -8.22571,17.06038 0,10.12315 6.51504,16.31523 17.3028,16.44508 l 7.95101,0.0957 -14.76474,13.8174 c -9.06959,8.48767 -17.16132,14.29672 -20.9779,15.06004 -9.65994,1.93198 -19.0824,13.39579 -22.10248,26.89091 -2.52789,11.2958 -5.27732,15.51908 -13.02888,20.01307 -3.23136,1.87339 -3.4275,2.74002 -1.22165,5.39791 4.88841,5.89016 37.79841,8.22317 47.26419,3.35058 8.18771,-4.21469 15.93944,-12.74371 20.99662,-23.10201 2.7125,-5.55584 10.88104,-16.40573 18.15232,-24.11087 11.65447,-12.34988 13.0608,-13.30713 11.87231,-8.08122 -4.8125,21.16113 -24.39492,48.03919 -42.90133,58.88466 -21.43232,12.56018 -49.30765,15.92027 -71.98573,8.67717 z m 3.74673,-23.07687 c 12.88357,-5.3831 15.29455,-19.63022 5.05476,-29.87 -5.31777,-5.31778 -7.17204,-5.99269 -13.63705,-4.96356 -9.50302,1.51272 -16.5738,9.33713 -16.5738,18.34029 0,7.83622 6.25709,16.69401 12.66716,17.93217 2.47799,0.47864 4.76192,0.99407 5.0754,1.14539 0.31348,0.15132 3.64957,-1.01161 7.41353,-2.58429 z m 0.44423,-92.89065 c 4.49459,-3.86609 5.62258,-6.54361 5.62258,-13.3464 0,-17.17285 -19.18611,-24.46944 -31.62744,-12.02811 -5.31777,5.31778 -5.99268,7.17204 -4.96356,13.63706 2.43246,15.28088 19.38094,21.70458 30.96842,11.73745 z m 48.48732,-14.14214 c 4.49459,-3.86608 5.62258,-6.5436 5.62258,-13.3464 0,-17.17284 -19.18611,-24.46944 -31.62744,-12.02811 -5.31777,5.31778 -5.99268,7.17205 -4.96356,13.63706 2.43247,15.28088 19.38094,21.70458 30.96842,11.73745 z"
         id="path912"
         transform="scale(0.26458333)" />
      <path
         style="opacity:0.998;fill:#413bda;fill-opacity:1;stroke-width:5.39933;stroke-dasharray:5.39933, 5.39933"
         d="m -238.75522,284.11563 c -6.42741,-3.44705 -6.33507,-11.90067 0.17334,-15.8691 4.33011,-2.64023 9.71194,-1.03342 12.64362,3.77491 1.72119,2.82297 1.79255,4.90832 0.27724,8.1016 -2.28775,4.82106 -8.19238,6.62146 -13.0942,3.99259 z"
         id="path914"
         transform="scale(0.26458333)" />
      <path
         style="opacity:0.998;fill:#f7c851;fill-opacity:1;stroke-width:5.39933;stroke-dasharray:5.39933, 5.39933"
         d="m -188.56147,271.06561 c -4.88989,-1.4157 -7.70411,-7.49272 -5.69575,-12.29939 1.58717,-3.79865 4.90889,-5.63476 9.57059,-5.29023 4.32163,0.3194 6.80497,2.16086 8.0657,5.98091 1.54679,4.68681 -0.61609,9.46943 -5.0924,11.2605 -3.1497,1.26026 -3.61598,1.28397 -6.84814,0.34821 z"
         id="path916"
         transform="scale(0.26458333)" />
      <path
         style="opacity:0.998;fill:#ef613a;fill-opacity:1;stroke-width:5.39933;stroke-dasharray:5.39933, 5.39933"
         d="m -149.3003,299.02117 c -2.59933,-1.5849 -4.49896,-4.77875 -4.49896,-7.56407 0,-4.68526 4.56238,-9.60771 8.90493,-9.60771 2.6436,0 6.68618,2.00514 7.959,3.94771 3.07112,4.68712 2.43638,9.10992 -1.82161,12.69279 -2.82612,2.37802 -7.15672,2.59624 -10.54336,0.53128 z"
         id="path918"
         transform="scale(0.26458333)" />
      <path
         style="opacity:0.998;fill:#68b5e2;fill-opacity:1;stroke-width:5.39933;stroke-dasharray:5.39933, 5.39933"
         d="m -233.97276,373.62148 c -3.36001,-2.28319 -4.11222,-3.72471 -4.11222,-7.88059 0,-2.93355 0.34131,-3.68659 2.77311,-6.11839 4.64617,-4.64616 10.97711,-3.88564 14.40118,1.72999 2.57578,4.2244 1.11361,9.94555 -3.2275,12.6285 -3.16428,1.95563 -6.61306,1.82956 -9.83457,-0.35951 z"
         id="path920"
         transform="scale(0.26458333)" />
      <path
         style="opacity:0.998;fill:#f47c61;fill-opacity:1;stroke-width:5.39933;stroke-dasharray:5.39933, 5.39933"
         d="m -190.76355,387.09062 c -1.27216,-0.51333 -1.10921,-2.01691 0.57675,-5.32165 0.80828,-1.58437 2.43178,-6.63406 3.60778,-11.22155 1.17601,-4.58749 2.79609,-10.01377 3.60018,-12.05841 2.09108,-5.31716 6.87337,-9.56482 13.10255,-11.63776 l 4.92554,-1.63911 8.07575,8.30342 c 5.71679,5.87796 8.07574,8.80144 8.07574,10.00837 0,3.41608 -4.8663,11.61922 -9.36182,15.78128 -5.42773,5.02513 -8.58971,6.64298 -14.71382,7.52848 -5.02579,0.72668 -16.32238,0.88894 -17.88865,0.25693 z"
         id="path922"
         transform="scale(0.26458333)" />
      <path
         style="opacity:0.998;fill:#f8c852;fill-opacity:1;stroke-width:5.39933;stroke-dasharray:5.39933, 5.39933"
         d="m -149.86377,347.61601 c -3.12747,-3.50693 -5.78287,-6.6659 -5.90088,-7.01991 -0.34631,-1.03894 35.95317,-34.77917 54.82253,-50.95733 13.963149,-11.97168 36.071092,-29.21795 37.454413,-29.21795 2.085672,0 -30.05172,39.71563 -50.574223,62.5 -9.89997,10.99109 -29.04976,31.07143 -29.63153,31.07143 -0.26619,0 -3.04283,-2.86931 -6.17031,-6.37624 z"
         id="path924"
         transform="scale(0.26458333)" />
    </g>
    <rect
       style="fill:#9a5ddb;fill-opacity:1;stroke:none;stroke-width:0.51773;stroke-linejoin:bevel"
       id="rect847"
       width="158.75"
       height="105.83334"
       x="158.75"
       y="2.9928775e-05" />
    <path
       style="fill:#8649c7;fill-opacity:1;stroke:none;stroke-width:0.369206px;stroke-linecap:butt;stroke-linejoin:miter;stroke-opacity:1"
       d="m 257.41196,105.83337 c 0,0 2.06585,-5.49634 3.80031,-6.955291 3.792,-3.189675 9.84751,-4.010492 13.33697,-8.245968 3.48945,-4.235477 2.90224,-13.051756 6.09485,-16.133425 3.03545,-2.92996 9.04199,-1.201615 11.90287,-4.302248 6.76573,-7.332705 3.64922,-11.313363 7.24212,-15.05786 1.93835,-2.020128 4.88426,-2.70803 7.32877,-4.10259 0.34073,-0.194383 0.67174,-0.40251 0.98891,-0.629881 2.33913,-1.676881 9.39324,-6.596772 9.39324,-6.596772 v 62.024035 z"
       id="path832"
       sodipodi:nodetypes="cszsssssccc" />
    <path
       id="path956"
       style="opacity:0.998;fill:#e567a1;fill-opacity:1;stroke:#011e62;stroke-width:1.7;stroke-miterlimit:4;stroke-dasharray:none;stroke-opacity:1"
       d="m 282.34186,63.683008 a 16.971614,16.971614 0 0 0 -16.86305,16.971573 16.971614,16.971614 0 0 0 16.97158,16.971574 16.971614,16.971614 0 0 0 16.97208,-16.971574 16.971614,16.971614 0 0 0 -16.97208,-16.971573 16.971614,16.971614 0 0 0 -0.10853,0 z m -4.78058,9.283155 a 2.8456363,2.8456363 0 0 1 5.1e-4,0 2.8456363,2.8456363 0 0 1 2.05828,0.833541 2.8456363,2.8456363 0 0 1 0,4.024042 2.8456363,2.8456363 0 0 1 -4.02456,0 2.8456363,2.8456363 0 0 1 0,-4.024042 2.8456363,2.8456363 0 0 1 1.96577,-0.833541 z m 9.68571,0 a 2.8456363,2.8456363 0 0 1 5.2e-4,0 2.8456363,2.8456363 0 0 1 2.05827,0.833541 2.8456363,2.8456363 0 0 1 0,4.024042 2.8456363,2.8456363 0 0 1 -4.02456,0 2.8456363,2.8456363 0 0 1 0,-4.024042 2.8456363,2.8456363 0 0 1 1.96577,-0.833541 z m -9.6852,9.685713 a 2.8456363,2.8456363 0 0 1 2.05828,0.833022 2.8456363,2.8456363 0 0 1 0,4.024561 2.8456363,2.8456363 0 0 1 -4.02456,0 2.8456363,2.8456363 0 0 1 0,-4.024561 2.8456363,2.8456363 0 0 1 1.96628,-0.833022 z m 9.68572,0 a 2.8456363,2.8456363 0 0 1 2.05827,0.833022 2.8456363,2.8456363 0 0 1 0,4.024561 2.8456363,2.8456363 0 0 1 -4.02456,0 2.8456363,2.8456363 0 0 1 0,-4.024561 2.8456363,2.8456363 0 0 1 1.96629,-0.833022 z" />
    <path
       style="fill:#c6f3ea;fill-opacity:1;stroke:#011e62;stroke-width:1.7;stroke-miterlimit:4;stroke-dasharray:none;stroke-opacity:1"
       d="m 105.84433,100.87414 c -0.89254,-0.17019 -1.52158,-0.65307 -1.93086,-1.482213 -0.36167,-0.732689 -0.39931,-1.466115 -0.11277,-2.197296 0.25672,-0.655049 0.68418,-1.101012 1.36802,-1.42722 0.41375,-0.197369 0.73593,-0.273217 1.16541,-0.27436 0.64552,-0.0017 1.15371,0.185133 1.77756,0.65357 0.21726,0.163134 0.45497,0.327305 0.52825,0.364825 0.18538,0.09492 0.39088,0.0896 0.48632,-0.01258 0.12338,-0.132078 0.64114,-1.575953 0.86996,-2.426045 0.42147,-1.565825 0.96236,-4.790434 1.07633,-6.416845 0.12895,-1.840106 0.0487,-4.476324 -0.16485,-5.415581 l -0.0556,-0.244509 -0.11335,0.02374 c -0.0623,0.01306 -0.53201,0.119428 -1.0437,0.236373 -1.48947,0.340414 -2.13257,0.443575 -3.32501,0.533367 -0.69695,0.05248 -2.00425,0.04452 -2.97695,-0.01814 -0.46216,-0.02977 -0.84721,-0.04721 -0.85566,-0.03876 -0.008,0.0085 0.005,0.174359 0.0293,0.368684 0.10177,0.804465 0.0439,2.705316 -0.13206,4.339351 -0.28592,2.654808 -0.4944,3.715568 -1.18216,6.014962 -0.14474,0.48389 -0.38641,1.308029 -0.53706,1.831421 -0.47009,1.63317 -0.823986,2.559554 -1.186636,3.106233 -0.52243,0.787527 -1.3243,1.325451 -2.17227,1.45724 -0.32909,0.05115 -0.9448,0.0237 -1.23534,-0.05507 -0.97533,-0.264415 -1.65473,-0.989351 -1.95354,-2.084465 -0.0791,-0.290082 -0.0758,-0.893456 0.007,-1.202992 0.0834,-0.312632 0.3439,-0.840791 0.51661,-1.047192 0.72297,-0.86401 1.90938,-1.210327 2.98004,-0.869884 0.34869,0.110875 0.5624,0.23404 0.97823,0.563776 0.50263,0.398558 0.749,0.474046 0.96205,0.294777 0.13882,-0.116814 0.19983,-0.26493 0.643776,-1.562923 0.70773,-2.06927 0.93098,-2.925938 1.19314,-4.578552 0.30613,-1.929763 0.40516,-3.029413 0.41071,-4.560597 0.004,-0.970263 -0.008,-1.269646 -0.0613,-1.651871 -0.13931,-0.99186 -0.37087,-1.957798 -0.62639,-2.612982 l -0.10874,-0.278818 0.0762,-0.05335 c 0.10818,-0.07578 0.26438,-0.06664 0.68211,0.03989 0.77166,0.19679 1.72114,0.279913 3.18456,0.278797 0.72696,-5.66e-4 1.12965,-0.01949 1.70573,-0.08021 1.93964,-0.204429 2.74099,-0.386731 3.6465,-0.829546 0.5151,-0.251897 0.59322,-0.244978 0.74996,0.06643 0.32296,0.641601 0.63829,2.078472 0.74338,3.38732 0.0868,1.081125 0.087,3.862807 4.1e-4,4.948307 -0.25013,3.134699 -0.70826,5.478578 -1.64593,8.420946 -0.32678,1.025456 -0.80779,2.371992 -0.95447,2.671996 -0.42568,0.870627 -1.27975,1.585446 -2.12688,1.780116 -0.36038,0.0828 -0.95714,0.1014 -1.27984,0.0399 z m -0.55952,-3.159206 c 0.16771,-0.08673 0.35339,-0.285772 0.46554,-0.499064 0.0892,-0.169594 0.0985,-0.223024 0.0987,-0.564385 2.1e-4,-0.347798 -0.008,-0.393636 -0.10748,-0.590701 -0.14682,-0.291148 -0.17402,-0.30183 -0.45148,-0.177313 -0.45817,0.205616 -0.93901,0.637408 -1.21152,1.087953 l -0.0741,0.122433 0.0843,0.164849 c 0.18155,0.355144 0.50648,0.554436 0.86438,0.530167 0.11939,-0.0081 0.26861,-0.04137 0.3316,-0.07394 z m -9.689036,-1.048462 c 0.27553,-0.08182 0.54915,-0.361227 0.63164,-0.644986 0.0844,-0.29025 0.0569,-0.61955 -0.074,-0.88684 -0.0554,-0.113191 -0.13038,-0.232596 -0.16657,-0.265346 -0.0617,-0.05583 -0.0801,-0.05248 -0.29578,0.05368 -0.50048,0.24639 -1.03138,0.782882 -1.20602,1.21873 -0.0456,0.113864 -0.0426,0.123771 0.0743,0.245541 0.28103,0.292606 0.65344,0.392943 1.03637,0.279224 z m 15.564796,-7.84267 c 0.19359,-1.459347 0.21521,-4.800232 0.0387,-5.979795 -0.0592,-0.395309 -0.14717,-0.70025 -0.2021,-0.70025 -0.0195,0 -0.0275,0.02828 -0.0177,0.06284 0.24893,0.883459 0.31542,4.626487 0.11014,6.201207 -0.0644,0.494289 -0.0648,0.594802 -0.002,0.594802 0.0319,0 0.0576,-0.06281 0.073,-0.178807 z m -9.0755,-2.864584 c 0.0473,-0.28176 0.0334,-2.668615 -0.0185,-3.187032 -0.0906,-0.903389 -0.35703,-2.413078 -0.44522,-2.522691 -0.036,-0.0447 -0.39072,-0.06453 -0.43114,-0.02411 -0.0114,0.01143 0.0411,0.194358 0.11681,0.406509 0.33789,0.947213 0.54889,2.004866 0.64905,3.253508 0.0376,0.468701 0.0273,1.213915 -0.0269,1.948128 -0.0209,0.282967 -0.0185,0.296259 0.0527,0.296259 0.061,0 0.0798,-0.03105 0.10322,-0.170573 z m 9.20467,-5.332919 c 0,-0.09725 -0.17538,-0.675466 -0.26279,-0.866391 -0.0753,-0.164388 -0.10849,-0.201685 -0.17968,-0.201685 -0.048,0 -0.27113,0.08744 -0.49575,0.19431 -0.42871,0.203971 -0.78754,0.333132 -1.26882,0.45671 -0.32939,0.08458 -1.02456,0.210825 -1.16089,0.210825 -0.62807,0 2.12215,0.210014 3.23327,0.246901 0.0866,0.0029 0.13466,-0.01165 0.13466,-0.04067 z"
       id="path862" />
    <path
       style="fill:#c6f3ea;fill-opacity:1;stroke:#011e62;stroke-width:1.7;stroke-miterlimit:4;stroke-dasharray:none;stroke-opacity:1"
       d="m 74.634589,94.34996 c -0.89254,-0.17019 -1.52158,-0.653074 -1.93086,-1.482216 -0.36167,-0.732689 -0.39931,-1.466115 -0.11277,-2.197296 0.25672,-0.655049 0.68418,-1.101012 1.36802,-1.42722 0.41375,-0.197369 0.73593,-0.273217 1.16541,-0.27436 0.64552,-0.0017 1.15371,0.185133 1.77756,0.65357 0.21726,0.163134 0.45497,0.327305 0.52825,0.364825 0.18538,0.09492 0.39088,0.0896 0.48632,-0.01258 0.12338,-0.132078 0.64114,-1.575953 0.86996,-2.426045 0.42147,-1.565825 0.96236,-4.790434 1.07633,-6.416845 0.12895,-1.840106 0.0487,-4.476324 -0.16485,-5.415581 l -0.0556,-0.244509 -0.11335,0.02374 c -0.0623,0.01306 -0.53201,0.119428 -1.0437,0.236373 -1.48947,0.340414 -2.13257,0.443575 -3.32501,0.533367 -0.69695,0.05248 -2.00425,0.04452 -2.97695,-0.01814 -0.46216,-0.02977 -0.84721,-0.04721 -0.85566,-0.03876 -0.008,0.0085 0.005,0.174359 0.0293,0.368684 0.10177,0.804465 0.0439,2.705316 -0.13206,4.339351 -0.28592,2.654808 -0.4944,3.715568 -1.18216,6.014962 -0.14474,0.48389 -0.38641,1.308029 -0.53706,1.831421 -0.47009,1.63317 -0.82399,2.559554 -1.18664,3.106233 -0.52243,0.787527 -1.3243,1.325451 -2.17227,1.45724 -0.32909,0.05115 -0.9448,0.0237 -1.23534,-0.05507 -0.97533,-0.264415 -1.65473,-0.989351 -1.95354,-2.084465 -0.0791,-0.290082 -0.0758,-0.893456 0.007,-1.202992 0.0834,-0.312632 0.3439,-0.840791 0.51661,-1.047192 0.72297,-0.86401 1.90938,-1.210327 2.98004,-0.869884 0.34869,0.110875 0.5624,0.23404 0.97823,0.563776 0.50263,0.398558 0.749,0.474046 0.96205,0.294777 0.13882,-0.116814 0.19983,-0.26493 0.64378,-1.562923 0.70773,-2.06927 0.93098,-2.925938 1.19314,-4.578552 0.30613,-1.929763 0.40516,-3.029413 0.41071,-4.560597 0.004,-0.970263 -0.008,-1.269646 -0.0613,-1.651871 -0.13931,-0.99186 -0.37087,-1.957798 -0.62639,-2.612982 l -0.10874,-0.278818 0.0762,-0.05335 c 0.10818,-0.07578 0.26438,-0.06664 0.68211,0.03989 0.77166,0.19679 1.72114,0.279913 3.18456,0.278797 0.72696,-5.66e-4 1.12965,-0.01949 1.70573,-0.08021 1.93964,-0.204429 2.74099,-0.386731 3.6465,-0.829546 0.5151,-0.251897 0.59322,-0.244978 0.74996,0.06643 0.32296,0.641601 0.63829,2.078472 0.74338,3.38732 0.0868,1.081125 0.087,3.862807 4.1e-4,4.948307 -0.25013,3.134699 -0.70826,5.478578 -1.64593,8.420946 -0.32678,1.025456 -0.80779,2.371992 -0.95447,2.671996 -0.42568,0.870627 -1.27975,1.585439 -2.12688,1.780109 -0.36038,0.0828 -0.95714,0.10141 -1.27984,0.0399 z m -0.55952,-3.159209 c 0.16771,-0.08673 0.35339,-0.285772 0.46554,-0.499064 0.0892,-0.169594 0.0985,-0.223024 0.0987,-0.564385 2.1e-4,-0.347798 -0.008,-0.393636 -0.10748,-0.590701 -0.14682,-0.291148 -0.17402,-0.30183 -0.45148,-0.177313 -0.45817,0.205616 -0.93901,0.637408 -1.21152,1.087953 l -0.0741,0.122433 0.0843,0.164849 c 0.18155,0.355144 0.50648,0.554436 0.86438,0.530167 0.11939,-0.0081 0.26861,-0.04137 0.3316,-0.07394 z m -9.68904,-1.048462 c 0.27553,-0.08182 0.54915,-0.361227 0.63164,-0.644986 0.0844,-0.29025 0.0569,-0.61955 -0.074,-0.88684 -0.0554,-0.113191 -0.13038,-0.232596 -0.16657,-0.265346 -0.0617,-0.05583 -0.0801,-0.05248 -0.29578,0.05368 -0.50048,0.24639 -1.03138,0.782882 -1.20602,1.21873 -0.0456,0.113864 -0.0426,0.123771 0.0743,0.245541 0.28103,0.292606 0.65344,0.392943 1.03637,0.279224 z m 15.5648,-7.84267 c 0.19359,-1.459347 0.21521,-4.800232 0.0387,-5.979795 -0.0592,-0.395309 -0.14717,-0.70025 -0.2021,-0.70025 -0.0195,0 -0.0275,0.02828 -0.0177,0.06284 0.24893,0.883459 0.31542,4.626487 0.11014,6.201207 -0.0644,0.494289 -0.0648,0.594802 -0.002,0.594802 0.0319,0 0.0576,-0.06281 0.073,-0.178807 z m -9.0755,-2.864584 c 0.0473,-0.28176 0.0334,-2.668615 -0.0185,-3.187032 -0.0906,-0.903389 -0.35703,-2.413078 -0.44522,-2.522691 -0.036,-0.0447 -0.39072,-0.06453 -0.43114,-0.02411 -0.0114,0.01143 0.0411,0.194358 0.11681,0.406509 0.33789,0.947213 0.54889,2.004866 0.64905,3.253508 0.0376,0.468701 0.0273,1.213915 -0.0269,1.948128 -0.0209,0.282967 -0.0185,0.296259 0.0527,0.296259 0.061,0 0.0798,-0.03105 0.10322,-0.170573 z m 9.20467,-5.332919 c 0,-0.09725 -0.17538,-0.675466 -0.26279,-0.866391 -0.0753,-0.164388 -0.10849,-0.201685 -0.17968,-0.201685 -0.048,0 -0.27113,0.08744 -0.49575,0.19431 -0.42871,0.203971 -0.78754,0.333132 -1.26882,0.45671 -0.32939,0.08458 -1.02456,0.210825 -1.16089,0.210825 -0.62807,0 2.12215,0.210014 3.23327,0.246901 0.0866,0.0029 0.13466,-0.01165 0.13466,-0.04067 z"
       id="path862-9" />
  </g>
</svg>
