<?xml version="1.0" encoding="UTF-8" standalone="no"?>
<svg
   xmlns:dc="http://purl.org/dc/elements/1.1/"
   xmlns:cc="http://creativecommons.org/ns#"
   xmlns:rdf="http://www.w3.org/1999/02/22-rdf-syntax-ns#"
   xmlns:svg="http://www.w3.org/2000/svg"
   xmlns="http://www.w3.org/2000/svg"
   xmlns:sodipodi="http://sodipodi.sourceforge.net/DTD/sodipodi-0.dtd"
   xmlns:inkscape="http://www.inkscape.org/namespaces/inkscape"
   width="1000"
   height="300"
   viewBox="0 0 264.58333 79.374998"
   version="1.1"
   id="svg8"
   inkscape:version="1.0.2-2 (e86c870879, 2021-01-15)"
   sodipodi:docname="mini_technology.svg">
  <defs
     id="defs2" />
  <sodipodi:namedview
     id="base"
     pagecolor="#ffffff"
     bordercolor="#666666"
     borderopacity="1.0"
     inkscape:pageopacity="0.0"
     inkscape:pageshadow="2"
     inkscape:zoom="0.7"
     inkscape:cx="578.23611"
     inkscape:cy="410.24765"
     inkscape:document-units="mm"
     inkscape:current-layer="layer1"
     inkscape:document-rotation="0"
     showgrid="false"
     inkscape:window-width="1920"
     inkscape:window-height="1001"
     inkscape:window-x="-11"
     inkscape:window-y="-11"
     inkscape:window-maximized="1"
     units="px" />
  <metadata
     id="metadata5">
    <rdf:RDF>
      <cc:Work
         rdf:about="">
        <dc:format>image/svg+xml</dc:format>
        <dc:type
           rdf:resource="http://purl.org/dc/dcmitype/StillImage" />
        <dc:title />
      </cc:Work>
    </rdf:RDF>
  </metadata>
  <g
     inkscape:label="Шар 1"
     inkscape:groupmode="layer"
     id="layer1">
    <rect
       style="fill:#f47a62;fill-opacity:1;stroke:none;stroke-width:0.578839;stroke-linejoin:bevel"
       id="rect1717"
       width="264.58334"
       height="79.375"
       x="0"
       y="2.9928775e-05" />
    <path
       id="path1139"
       style="fill:#ef613a;fill-opacity:1;stroke:none;stroke-width:0.264583px;stroke-linecap:butt;stroke-linejoin:miter;stroke-opacity:1"
       d="m 264.58334,79.375031 v -65.19033 c -1.15899,1.77823 -2.36299,3.34623 -3.46542,4.22713 -3.51943,2.81221 -8.11829,2.9354 -11.09131,5.88026 -4.24832,4.20808 -4.14487,11.87699 -8.55297,15.76854 -3.88661,3.43117 -9.66781,3.50859 -13.49685,7.75095 -3.82904,4.24236 -3.32146,11.52209 -7.61711,17.10542 -3.62496,4.711591 -11.69476,4.615651 -15.10088,9.487791 -1.28597,1.76288 -2.68376,3.43254 -3.87212,4.970239 z" />
    <path
       id="path910-5"
       style="fill:#ef613a;fill-opacity:1;stroke:none;stroke-width:0.264583px;stroke-linecap:butt;stroke-linejoin:miter;stroke-opacity:1"
       d="M 0,2.9928775e-5 V 65.19036 c 1.158994,-1.77823 2.362994,-3.34623 3.465422,-4.22713 3.51943,-2.81221 8.118293,-2.9354 11.091313,-5.88026 4.248319,-4.20808 4.144864,-11.87699 8.552965,-15.76854 3.88661,-3.43117 9.667812,-3.50859 13.496851,-7.75095 3.829039,-4.24236 3.321455,-11.52209 7.617105,-17.10542 3.624961,-4.7115901 11.694769,-4.6156501 15.100888,-9.4877901 1.285962,-1.76288 2.683753,-3.43254 3.872116,-4.970239971225 z" />
    <g
       id="g1068"
       transform="matrix(0.35545106,0,0,0.35545106,81.06006,29.391835)">
      <g
         id="g969"
         style="stroke:#f2bf01;stroke-opacity:1"
         transform="translate(237.7697,46.90265)">
        <path
           style="fill:none;stroke:#f2bf01;stroke-width:1;stroke-linecap:butt;stroke-linejoin:miter;stroke-miterlimit:4;stroke-dasharray:none;stroke-opacity:1"
           d="m -111.88095,70.776041 v 10.205357 l 2.92931,2.929316 V 109.5186"
           id="path954" />
        <path
           style="fill:none;stroke:#f2bf01;stroke-width:1;stroke-linecap:butt;stroke-linejoin:miter;stroke-miterlimit:4;stroke-dasharray:none;stroke-opacity:1"
           d="m -103.09301,74.177826 v 11.717263 l -5.78261,3.338592"
           id="path956" />
        <path
           style="fill:none;stroke:#f2bf01;stroke-width:1;stroke-linecap:butt;stroke-linejoin:miter;stroke-miterlimit:4;stroke-dasharray:none;stroke-opacity:1"
           d="m -97.187127,59.011534 v 31.183034 l -6.656453,3.843105 V 110.3218"
           id="path958" />
        <path
           style="fill:none;stroke:#f2bf01;stroke-width:1;stroke-linecap:butt;stroke-linejoin:miter;stroke-miterlimit:4;stroke-dasharray:none;stroke-opacity:1"
           d="m -88.540922,82.209822 v 5.669642 l -18.993298,18.993306"
           id="path960" />
        <path
           style="fill:none;stroke:#f2bf01;stroke-width:1;stroke-linecap:butt;stroke-linejoin:miter;stroke-miterlimit:4;stroke-dasharray:none;stroke-opacity:1"
           d="M -97.801339,97.187127 V 107.95945"
           id="path962" />
      </g>
      <circle
         style="opacity:0.998;fill:#c6f4eb;fill-opacity:1;stroke:none;stroke-width:1.1039;stroke-linecap:round;stroke-linejoin:round;stroke-miterlimit:4;stroke-dasharray:none;stroke-opacity:1"
         id="path971-7"
         cx="126.15121"
         cy="116.09205"
         r="2.8397388" />
      <circle
         style="opacity:0.998;fill:#c6f4eb;fill-opacity:1;stroke:none;stroke-width:1.1039;stroke-linecap:round;stroke-linejoin:round;stroke-miterlimit:4;stroke-dasharray:none;stroke-opacity:1"
         id="circle973"
         cx="134.43657"
         cy="120.36836"
         r="2.8397388" />
      <circle
         style="opacity:0.998;fill:#413adb;fill-opacity:1;stroke:none;stroke-width:1.1039;stroke-linecap:round;stroke-linejoin:round;stroke-miterlimit:4;stroke-dasharray:none;stroke-opacity:1"
         id="circle975"
         cx="140.65059"
         cy="103.79765"
         r="2.8397388" />
      <circle
         style="opacity:0.998;fill:#c6f4eb;fill-opacity:1;stroke:none;stroke-width:1.1039;stroke-linecap:round;stroke-linejoin:round;stroke-miterlimit:4;stroke-dasharray:none;stroke-opacity:1"
         id="circle977"
         cx="140.65059"
         cy="103.79765"
         r="2.8397388" />
      <circle
         style="opacity:0.998;fill:#c6f4eb;fill-opacity:1;stroke:none;stroke-width:1.1039;stroke-linecap:round;stroke-linejoin:round;stroke-miterlimit:4;stroke-dasharray:none;stroke-opacity:1"
         id="circle979"
         cx="149.1364"
         cy="127.0501"
         r="2.8397388" />
    </g>
    <g
       id="g952"
       transform="matrix(0.40466015,0.06142293,-0.06142293,0.40466015,152.34334,48.278485)">
      <path
         id="path920"
         style="opacity:0.998;fill:#c6f4eb;fill-opacity:1;stroke:none;stroke-width:7.21546;stroke-dasharray:7.21546, 7.21546"
         d="m -451.60742,242.14258 a 26.25,26.25 0 0 0 -26.25,26.25 26.25,26.25 0 0 0 13.03515,22.68164 v 14.2832 h 26.42969 v -14.2832 a 26.25,26.25 0 0 0 13.03516,-22.68164 26.25,26.25 0 0 0 -26.25,-26.25 z"
         transform="scale(0.26458333)" />
      <rect
         style="opacity:0.998;fill:#413adb;fill-opacity:1;stroke:none;stroke-width:2.14679;stroke-dasharray:2.14679, 2.14679"
         id="rect928-2"
         width="5.8586273"
         height="1.2520491"
         x="-122.41711"
         y="83.721725"
         ry="0.62602454" />
      <rect
         style="opacity:0.998;fill:#413adb;fill-opacity:1;stroke:none;stroke-width:2.14679;stroke-dasharray:2.14679, 2.14679"
         id="rect930"
         width="5.8586273"
         height="1.2520491"
         x="-122.41711"
         y="85.406082"
         ry="0.62602454" />
      <rect
         style="opacity:0.998;fill:#413adb;fill-opacity:1;stroke:none;stroke-width:2.14679;stroke-dasharray:2.14679, 2.14679"
         id="rect932"
         width="5.8586273"
         height="1.2520491"
         x="-122.41711"
         y="87.090446"
         ry="0.62602454" />
      <rect
         style="opacity:0.998;fill:#f2be03;fill-opacity:1;stroke:none;stroke-width:2.14679;stroke-dasharray:2.14679, 2.14679"
         id="rect934"
         width="7.6961083"
         height="0.91796541"
         x="74.420303"
         y="119.02876"
         ry="0.45898271"
         transform="rotate(90)" />
      <path
         id="rect936"
         style="opacity:0.998;fill:#011e62;fill-opacity:1;stroke:none;stroke-width:2;stroke-dasharray:2, 2"
         d="m -122.98422,80.792483 v 0.415478 c 0,0.889947 0.71668,1.606621 1.60662,1.606621 h 3.77962 c 0.88994,0 1.60662,-0.716674 1.60662,-1.606621 v -0.415478 z" />
      <path
         style="fill:none;fill-opacity:1;stroke:#f2be03;stroke-width:1.065;stroke-linecap:round;stroke-linejoin:round;stroke-miterlimit:4;stroke-dasharray:none;stroke-opacity:1"
         d="m -123.73995,71.862722 1.08668,-0.944939 1.02315,1.772156 2.14627,-2.146263 2.14627,2.146263 1.02315,-1.772156 1.08668,0.944939"
         id="path941"
         sodipodi:nodetypes="ccccccc" />
    </g>
    <g
       id="g1984"
       transform="matrix(0.09228667,-0.04365908,0.04365908,0.09228667,99.312494,127.93296)">
      <path
         style="fill:#c3f0ed;fill-opacity:1;stroke:none;stroke-width:0.318025px;stroke-linecap:butt;stroke-linejoin:miter;stroke-opacity:1"
         d="m 319.74908,-429.86717 25.27778,38.26207 74.47015,30.53047 -23.73979,-35.08181 z"
         id="path1922"
         sodipodi:nodetypes="ccccc" />
      <path
         style="fill:#69b5e4;fill-opacity:1;stroke:none;stroke-width:0.264583px;stroke-linecap:butt;stroke-linejoin:miter;stroke-opacity:1"
         d="m 329.93554,-421.97917 18.38854,28.31042 61.51563,25.4 -16.66875,-25.66458 z"
         id="path1920" />
      <path
         style="fill:#c6f3ed;fill-opacity:1;stroke:none;stroke-width:0.302038px;stroke-linecap:butt;stroke-linejoin:miter;stroke-opacity:1"
         d="m 328.452,-501.81634 -8.30604,67.20344 75.96254,34.13029 7.24891,-64.78714 z"
         id="path1926" />
      <path
         style="fill:#413bda;fill-opacity:1;stroke:none;stroke-width:0.264583px;stroke-linecap:butt;stroke-linejoin:miter;stroke-opacity:1"
         d="m 332.58137,-495.53333 -7.27604,58.86979 66.54271,29.89792 6.35,-56.75313 z"
         id="path1924" />
      <path
         style="fill:#6eb6e2;fill-opacity:1;stroke:none;stroke-width:0.264583px;stroke-linecap:butt;stroke-linejoin:miter;stroke-opacity:1"
         d="m 320.14596,-434.6129 -0.39688,4.74573 76.00814,33.71073 0.35128,-4.32617 z"
         id="path1930" />
      <path
         style="fill:#4039db;fill-opacity:1;stroke:none;stroke-width:0.264583px;stroke-linecap:butt;stroke-linejoin:miter;stroke-opacity:1"
         d="m 419.497,-361.07462 -3.10886,3.58764 -74.67863,-29.69948 -27.51667,-43.92083 7.67292,-65.0875 6.58625,-5.62155 -8.30604,67.20344 -0.39688,4.74573 25.27778,38.26207 74.47014,30.53048"
         id="path1932"
         sodipodi:nodetypes="cccccccccc" />
      <path
         style="fill:#c0f2ee;fill-opacity:1;stroke:none;stroke-width:0.264583px;stroke-linecap:butt;stroke-linejoin:miter;stroke-opacity:1"
         d="m 356.42397,-394.51993 38.91444,15.71545 -2.05797,-3.74177 -38.54027,-15.90254 z"
         id="path1944" />
    </g>
    <g
       id="g1352"
       transform="matrix(0.35545106,0,0,0.35545106,35.525918,29.391835)">
      <g
         id="g1340"
         style="stroke:#f2bf01;stroke-opacity:1"
         transform="translate(237.7697,46.90265)">
        <path
           style="fill:none;stroke:#f2bf01;stroke-width:1;stroke-linecap:butt;stroke-linejoin:miter;stroke-miterlimit:4;stroke-dasharray:none;stroke-opacity:1"
           d="m -111.88095,70.776041 v 10.205357 l 2.92931,2.929316 V 109.5186"
           id="path1330" />
        <path
           style="fill:none;stroke:#f2bf01;stroke-width:1;stroke-linecap:butt;stroke-linejoin:miter;stroke-miterlimit:4;stroke-dasharray:none;stroke-opacity:1"
           d="m -103.09301,74.177826 v 11.717263 l -5.78261,3.338592"
           id="path1332" />
        <path
           style="fill:none;stroke:#f2bf01;stroke-width:1;stroke-linecap:butt;stroke-linejoin:miter;stroke-miterlimit:4;stroke-dasharray:none;stroke-opacity:1"
           d="m -97.187127,59.011534 v 31.183034 l -6.656453,3.843105 V 110.3218"
           id="path1334" />
        <path
           style="fill:none;stroke:#f2bf01;stroke-width:1;stroke-linecap:butt;stroke-linejoin:miter;stroke-miterlimit:4;stroke-dasharray:none;stroke-opacity:1"
           d="m -88.540922,82.209822 v 5.669642 l -18.993298,18.993306"
           id="path1336" />
        <path
           style="fill:none;stroke:#f2bf01;stroke-width:1;stroke-linecap:butt;stroke-linejoin:miter;stroke-miterlimit:4;stroke-dasharray:none;stroke-opacity:1"
           d="M -97.801339,97.187127 V 107.95945"
           id="path1338" />
      </g>
      <circle
         style="opacity:0.998;fill:#c6f4eb;fill-opacity:1;stroke:none;stroke-width:1.1039;stroke-linecap:round;stroke-linejoin:round;stroke-miterlimit:4;stroke-dasharray:none;stroke-opacity:1"
         id="circle1342"
         cx="126.15121"
         cy="116.09205"
         r="2.8397388" />
      <circle
         style="opacity:0.998;fill:#c6f4eb;fill-opacity:1;stroke:none;stroke-width:1.1039;stroke-linecap:round;stroke-linejoin:round;stroke-miterlimit:4;stroke-dasharray:none;stroke-opacity:1"
         id="circle1344"
         cx="134.43657"
         cy="120.36836"
         r="2.8397388" />
      <circle
         style="opacity:0.998;fill:#413adb;fill-opacity:1;stroke:none;stroke-width:1.1039;stroke-linecap:round;stroke-linejoin:round;stroke-miterlimit:4;stroke-dasharray:none;stroke-opacity:1"
         id="circle1346"
         cx="140.65059"
         cy="103.79765"
         r="2.8397388" />
      <circle
         style="opacity:0.998;fill:#c6f4eb;fill-opacity:1;stroke:none;stroke-width:1.1039;stroke-linecap:round;stroke-linejoin:round;stroke-miterlimit:4;stroke-dasharray:none;stroke-opacity:1"
         id="circle1348"
         cx="140.65059"
         cy="103.79765"
         r="2.8397388" />
      <circle
         style="opacity:0.998;fill:#c6f4eb;fill-opacity:1;stroke:none;stroke-width:1.1039;stroke-linecap:round;stroke-linejoin:round;stroke-miterlimit:4;stroke-dasharray:none;stroke-opacity:1"
         id="circle1350"
         cx="149.1364"
         cy="127.0501"
         r="2.8397388" />
    </g>
    <g
       id="g1368"
       transform="matrix(0.40466015,0.06142293,-0.06142293,0.40466015,106.80919,48.278485)">
      <path
         id="path1354"
         style="opacity:0.998;fill:#c6f4eb;fill-opacity:1;stroke:none;stroke-width:7.21546;stroke-dasharray:7.21546, 7.21546"
         d="m -451.60742,242.14258 a 26.25,26.25 0 0 0 -26.25,26.25 26.25,26.25 0 0 0 13.03515,22.68164 v 14.2832 h 26.42969 v -14.2832 a 26.25,26.25 0 0 0 13.03516,-22.68164 26.25,26.25 0 0 0 -26.25,-26.25 z"
         transform="scale(0.26458333)" />
      <rect
         style="opacity:0.998;fill:#413adb;fill-opacity:1;stroke:none;stroke-width:2.14679;stroke-dasharray:2.14679, 2.14679"
         id="rect1356"
         width="5.8586273"
         height="1.2520491"
         x="-122.41711"
         y="83.721725"
         ry="0.62602454" />
      <rect
         style="opacity:0.998;fill:#413adb;fill-opacity:1;stroke:none;stroke-width:2.14679;stroke-dasharray:2.14679, 2.14679"
         id="rect1358"
         width="5.8586273"
         height="1.2520491"
         x="-122.41711"
         y="85.406082"
         ry="0.62602454" />
      <rect
         style="opacity:0.998;fill:#413adb;fill-opacity:1;stroke:none;stroke-width:2.14679;stroke-dasharray:2.14679, 2.14679"
         id="rect1360"
         width="5.8586273"
         height="1.2520491"
         x="-122.41711"
         y="87.090446"
         ry="0.62602454" />
      <rect
         style="opacity:0.998;fill:#f2be03;fill-opacity:1;stroke:none;stroke-width:2.14679;stroke-dasharray:2.14679, 2.14679"
         id="rect1362"
         width="7.6961083"
         height="0.91796541"
         x="74.420303"
         y="119.02876"
         ry="0.45898271"
         transform="rotate(90)" />
      <path
         id="path1364"
         style="opacity:0.998;fill:#011e62;fill-opacity:1;stroke:none;stroke-width:2;stroke-dasharray:2, 2"
         d="m -122.98422,80.792483 v 0.415478 c 0,0.889947 0.71668,1.606621 1.60662,1.606621 h 3.77962 c 0.88994,0 1.60662,-0.716674 1.60662,-1.606621 v -0.415478 z" />
      <path
         style="fill:none;fill-opacity:1;stroke:#f2be03;stroke-width:1.065;stroke-linecap:round;stroke-linejoin:round;stroke-miterlimit:4;stroke-dasharray:none;stroke-opacity:1"
         d="m -123.73995,71.862722 1.08668,-0.944939 1.02315,1.772156 2.14627,-2.146263 2.14627,2.146263 1.02315,-1.772156 1.08668,0.944939"
         id="path1366"
         sodipodi:nodetypes="ccccccc" />
    </g>
    <g
       id="g1384"
       transform="matrix(0.07784228,-0.06605698,0.06605698,0.07784228,68.709841,130.04714)">
      <path
         style="fill:#c3f0ed;fill-opacity:1;stroke:none;stroke-width:0.318025px;stroke-linecap:butt;stroke-linejoin:miter;stroke-opacity:1"
         d="m 319.74908,-429.86717 25.27778,38.26207 74.47015,30.53047 -23.73979,-35.08181 z"
         id="path1370"
         sodipodi:nodetypes="ccccc" />
      <path
         style="fill:#69b5e4;fill-opacity:1;stroke:none;stroke-width:0.264583px;stroke-linecap:butt;stroke-linejoin:miter;stroke-opacity:1"
         d="m 329.93554,-421.97917 18.38854,28.31042 61.51563,25.4 -16.66875,-25.66458 z"
         id="path1372" />
      <path
         style="fill:#c6f3ed;fill-opacity:1;stroke:none;stroke-width:0.302038px;stroke-linecap:butt;stroke-linejoin:miter;stroke-opacity:1"
         d="m 328.452,-501.81634 -8.30604,67.20344 75.96254,34.13029 7.24891,-64.78714 z"
         id="path1374" />
      <path
         style="fill:#413bda;fill-opacity:1;stroke:none;stroke-width:0.264583px;stroke-linecap:butt;stroke-linejoin:miter;stroke-opacity:1"
         d="m 332.58137,-495.53333 -7.27604,58.86979 66.54271,29.89792 6.35,-56.75313 z"
         id="path1376" />
      <path
         style="fill:#6eb6e2;fill-opacity:1;stroke:none;stroke-width:0.264583px;stroke-linecap:butt;stroke-linejoin:miter;stroke-opacity:1"
         d="m 320.14596,-434.6129 -0.39688,4.74573 76.00814,33.71073 0.35128,-4.32617 z"
         id="path1378" />
      <path
         style="fill:#4039db;fill-opacity:1;stroke:none;stroke-width:0.264583px;stroke-linecap:butt;stroke-linejoin:miter;stroke-opacity:1"
         d="m 419.497,-361.07462 -3.10886,3.58764 -74.67863,-29.69948 -27.51667,-43.92083 7.67292,-65.0875 6.58625,-5.62155 -8.30604,67.20344 -0.39688,4.74573 25.27778,38.26207 74.47014,30.53048"
         id="path1380"
         sodipodi:nodetypes="cccccccccc" />
      <path
         style="fill:#c0f2ee;fill-opacity:1;stroke:none;stroke-width:0.264583px;stroke-linecap:butt;stroke-linejoin:miter;stroke-opacity:1"
         d="m 356.42397,-394.51993 38.91444,15.71545 -2.05797,-3.74177 -38.54027,-15.90254 z"
         id="path1382" />
    </g>
    <g
       id="g1408"
       transform="matrix(0.35545106,0,0,0.35545106,-10.008228,29.391835)">
      <g
         id="g1396"
         style="stroke:#f2bf01;stroke-opacity:1"
         transform="translate(237.7697,46.90265)">
        <path
           style="fill:none;stroke:#f2bf01;stroke-width:1;stroke-linecap:butt;stroke-linejoin:miter;stroke-miterlimit:4;stroke-dasharray:none;stroke-opacity:1"
           d="m -111.88095,70.776041 v 10.205357 l 2.92931,2.929316 V 109.5186"
           id="path1386" />
        <path
           style="fill:none;stroke:#f2bf01;stroke-width:1;stroke-linecap:butt;stroke-linejoin:miter;stroke-miterlimit:4;stroke-dasharray:none;stroke-opacity:1"
           d="m -103.09301,74.177826 v 11.717263 l -5.78261,3.338592"
           id="path1388" />
        <path
           style="fill:none;stroke:#f2bf01;stroke-width:1;stroke-linecap:butt;stroke-linejoin:miter;stroke-miterlimit:4;stroke-dasharray:none;stroke-opacity:1"
           d="m -97.187127,59.011534 v 31.183034 l -6.656453,3.843105 V 110.3218"
           id="path1390" />
        <path
           style="fill:none;stroke:#f2bf01;stroke-width:1;stroke-linecap:butt;stroke-linejoin:miter;stroke-miterlimit:4;stroke-dasharray:none;stroke-opacity:1"
           d="m -88.540922,82.209822 v 5.669642 l -18.993298,18.993306"
           id="path1392" />
        <path
           style="fill:none;stroke:#f2bf01;stroke-width:1;stroke-linecap:butt;stroke-linejoin:miter;stroke-miterlimit:4;stroke-dasharray:none;stroke-opacity:1"
           d="M -97.801339,97.187127 V 107.95945"
           id="path1394" />
      </g>
      <circle
         style="opacity:0.998;fill:#c6f4eb;fill-opacity:1;stroke:none;stroke-width:1.1039;stroke-linecap:round;stroke-linejoin:round;stroke-miterlimit:4;stroke-dasharray:none;stroke-opacity:1"
         id="circle1398"
         cx="126.15121"
         cy="116.09205"
         r="2.8397388" />
      <circle
         style="opacity:0.998;fill:#c6f4eb;fill-opacity:1;stroke:none;stroke-width:1.1039;stroke-linecap:round;stroke-linejoin:round;stroke-miterlimit:4;stroke-dasharray:none;stroke-opacity:1"
         id="circle1400"
         cx="134.43657"
         cy="120.36836"
         r="2.8397388" />
      <circle
         style="opacity:0.998;fill:#413adb;fill-opacity:1;stroke:none;stroke-width:1.1039;stroke-linecap:round;stroke-linejoin:round;stroke-miterlimit:4;stroke-dasharray:none;stroke-opacity:1"
         id="circle1402"
         cx="140.65059"
         cy="103.79765"
         r="2.8397388" />
      <circle
         style="opacity:0.998;fill:#c6f4eb;fill-opacity:1;stroke:none;stroke-width:1.1039;stroke-linecap:round;stroke-linejoin:round;stroke-miterlimit:4;stroke-dasharray:none;stroke-opacity:1"
         id="circle1404"
         cx="140.65059"
         cy="103.79765"
         r="2.8397388" />
      <circle
         style="opacity:0.998;fill:#c6f4eb;fill-opacity:1;stroke:none;stroke-width:1.1039;stroke-linecap:round;stroke-linejoin:round;stroke-miterlimit:4;stroke-dasharray:none;stroke-opacity:1"
         id="circle1406"
         cx="149.1364"
         cy="127.0501"
         r="2.8397388" />
    </g>
    <g
       id="g1424"
       transform="matrix(0.40466015,0.06142293,-0.06142293,0.40466015,61.275042,48.278485)">
      <path
         id="path1410"
         style="opacity:0.998;fill:#c6f4eb;fill-opacity:1;stroke:none;stroke-width:7.21546;stroke-dasharray:7.21546, 7.21546"
         d="m -451.60742,242.14258 a 26.25,26.25 0 0 0 -26.25,26.25 26.25,26.25 0 0 0 13.03515,22.68164 v 14.2832 h 26.42969 v -14.2832 a 26.25,26.25 0 0 0 13.03516,-22.68164 26.25,26.25 0 0 0 -26.25,-26.25 z"
         transform="scale(0.26458333)" />
      <rect
         style="opacity:0.998;fill:#413adb;fill-opacity:1;stroke:none;stroke-width:2.14679;stroke-dasharray:2.14679, 2.14679"
         id="rect1412"
         width="5.8586273"
         height="1.2520491"
         x="-122.41711"
         y="83.721725"
         ry="0.62602454" />
      <rect
         style="opacity:0.998;fill:#413adb;fill-opacity:1;stroke:none;stroke-width:2.14679;stroke-dasharray:2.14679, 2.14679"
         id="rect1414"
         width="5.8586273"
         height="1.2520491"
         x="-122.41711"
         y="85.406082"
         ry="0.62602454" />
      <rect
         style="opacity:0.998;fill:#413adb;fill-opacity:1;stroke:none;stroke-width:2.14679;stroke-dasharray:2.14679, 2.14679"
         id="rect1416"
         width="5.8586273"
         height="1.2520491"
         x="-122.41711"
         y="87.090446"
         ry="0.62602454" />
      <rect
         style="opacity:0.998;fill:#f2be03;fill-opacity:1;stroke:none;stroke-width:2.14679;stroke-dasharray:2.14679, 2.14679"
         id="rect1418"
         width="7.6961083"
         height="0.91796541"
         x="74.420303"
         y="119.02876"
         ry="0.45898271"
         transform="rotate(90)" />
      <path
         id="path1420"
         style="opacity:0.998;fill:#011e62;fill-opacity:1;stroke:none;stroke-width:2;stroke-dasharray:2, 2"
         d="m -122.98422,80.792483 v 0.415478 c 0,0.889947 0.71668,1.606621 1.60662,1.606621 h 3.77962 c 0.88994,0 1.60662,-0.716674 1.60662,-1.606621 v -0.415478 z" />
      <path
         style="fill:none;fill-opacity:1;stroke:#f2be03;stroke-width:1.065;stroke-linecap:round;stroke-linejoin:round;stroke-miterlimit:4;stroke-dasharray:none;stroke-opacity:1"
         d="m -123.73995,71.862722 1.08668,-0.944939 1.02315,1.772156 2.14627,-2.146263 2.14627,2.146263 1.02315,-1.772156 1.08668,0.944939"
         id="path1422"
         sodipodi:nodetypes="ccccccc" />
    </g>
    <g
       id="g1440"
       transform="matrix(0.09228667,-0.04365908,0.04365908,0.09228667,8.2442066,127.93296)">
      <path
         style="fill:#c3f0ed;fill-opacity:1;stroke:none;stroke-width:0.318025px;stroke-linecap:butt;stroke-linejoin:miter;stroke-opacity:1"
         d="m 319.74908,-429.86717 25.27778,38.26207 74.47015,30.53047 -23.73979,-35.08181 z"
         id="path1426"
         sodipodi:nodetypes="ccccc" />
      <path
         style="fill:#69b5e4;fill-opacity:1;stroke:none;stroke-width:0.264583px;stroke-linecap:butt;stroke-linejoin:miter;stroke-opacity:1"
         d="m 329.93554,-421.97917 18.38854,28.31042 61.51563,25.4 -16.66875,-25.66458 z"
         id="path1428" />
      <path
         style="fill:#c6f3ed;fill-opacity:1;stroke:none;stroke-width:0.302038px;stroke-linecap:butt;stroke-linejoin:miter;stroke-opacity:1"
         d="m 328.452,-501.81634 -8.30604,67.20344 75.96254,34.13029 7.24891,-64.78714 z"
         id="path1430" />
      <path
         style="fill:#413bda;fill-opacity:1;stroke:none;stroke-width:0.264583px;stroke-linecap:butt;stroke-linejoin:miter;stroke-opacity:1"
         d="m 332.58137,-495.53333 -7.27604,58.86979 66.54271,29.89792 6.35,-56.75313 z"
         id="path1432" />
      <path
         style="fill:#6eb6e2;fill-opacity:1;stroke:none;stroke-width:0.264583px;stroke-linecap:butt;stroke-linejoin:miter;stroke-opacity:1"
         d="m 320.14596,-434.6129 -0.39688,4.74573 76.00814,33.71073 0.35128,-4.32617 z"
         id="path1434" />
      <path
         style="fill:#4039db;fill-opacity:1;stroke:none;stroke-width:0.264583px;stroke-linecap:butt;stroke-linejoin:miter;stroke-opacity:1"
         d="m 419.497,-361.07462 -3.10886,3.58764 -74.67863,-29.69948 -27.51667,-43.92083 7.67292,-65.0875 6.58625,-5.62155 -8.30604,67.20344 -0.39688,4.74573 25.27778,38.26207 74.47014,30.53048"
         id="path1436"
         sodipodi:nodetypes="cccccccccc" />
      <path
         style="fill:#c0f2ee;fill-opacity:1;stroke:none;stroke-width:0.264583px;stroke-linecap:butt;stroke-linejoin:miter;stroke-opacity:1"
         d="m 356.42397,-394.51993 38.91444,15.71545 -2.05797,-3.74177 -38.54027,-15.90254 z"
         id="path1438" />
    </g>
    <g
       id="g1464"
       transform="matrix(0.35545106,0,0,0.35545106,126.5942,29.391835)">
      <g
         id="g1452"
         style="stroke:#f2bf01;stroke-opacity:1"
         transform="translate(237.7697,46.90265)">
        <path
           style="fill:none;stroke:#f2bf01;stroke-width:1;stroke-linecap:butt;stroke-linejoin:miter;stroke-miterlimit:4;stroke-dasharray:none;stroke-opacity:1"
           d="m -111.88095,70.776041 v 10.205357 l 2.92931,2.929316 V 109.5186"
           id="path1442" />
        <path
           style="fill:none;stroke:#f2bf01;stroke-width:1;stroke-linecap:butt;stroke-linejoin:miter;stroke-miterlimit:4;stroke-dasharray:none;stroke-opacity:1"
           d="m -103.09301,74.177826 v 11.717263 l -5.78261,3.338592"
           id="path1444" />
        <path
           style="fill:none;stroke:#f2bf01;stroke-width:1;stroke-linecap:butt;stroke-linejoin:miter;stroke-miterlimit:4;stroke-dasharray:none;stroke-opacity:1"
           d="m -97.187127,59.011534 v 31.183034 l -6.656453,3.843105 V 110.3218"
           id="path1446" />
        <path
           style="fill:none;stroke:#f2bf01;stroke-width:1;stroke-linecap:butt;stroke-linejoin:miter;stroke-miterlimit:4;stroke-dasharray:none;stroke-opacity:1"
           d="m -88.540922,82.209822 v 5.669642 l -18.993298,18.993306"
           id="path1448" />
        <path
           style="fill:none;stroke:#f2bf01;stroke-width:1;stroke-linecap:butt;stroke-linejoin:miter;stroke-miterlimit:4;stroke-dasharray:none;stroke-opacity:1"
           d="M -97.801339,97.187127 V 107.95945"
           id="path1450" />
      </g>
      <circle
         style="opacity:0.998;fill:#c6f4eb;fill-opacity:1;stroke:none;stroke-width:1.1039;stroke-linecap:round;stroke-linejoin:round;stroke-miterlimit:4;stroke-dasharray:none;stroke-opacity:1"
         id="circle1454"
         cx="126.15121"
         cy="116.09205"
         r="2.8397388" />
      <circle
         style="opacity:0.998;fill:#c6f4eb;fill-opacity:1;stroke:none;stroke-width:1.1039;stroke-linecap:round;stroke-linejoin:round;stroke-miterlimit:4;stroke-dasharray:none;stroke-opacity:1"
         id="circle1456"
         cx="134.43657"
         cy="120.36836"
         r="2.8397388" />
      <circle
         style="opacity:0.998;fill:#413adb;fill-opacity:1;stroke:none;stroke-width:1.1039;stroke-linecap:round;stroke-linejoin:round;stroke-miterlimit:4;stroke-dasharray:none;stroke-opacity:1"
         id="circle1458"
         cx="140.65059"
         cy="103.79765"
         r="2.8397388" />
      <circle
         style="opacity:0.998;fill:#c6f4eb;fill-opacity:1;stroke:none;stroke-width:1.1039;stroke-linecap:round;stroke-linejoin:round;stroke-miterlimit:4;stroke-dasharray:none;stroke-opacity:1"
         id="circle1460"
         cx="140.65059"
         cy="103.79765"
         r="2.8397388" />
      <circle
         style="opacity:0.998;fill:#c6f4eb;fill-opacity:1;stroke:none;stroke-width:1.1039;stroke-linecap:round;stroke-linejoin:round;stroke-miterlimit:4;stroke-dasharray:none;stroke-opacity:1"
         id="circle1462"
         cx="149.1364"
         cy="127.0501"
         r="2.8397388" />
    </g>
    <g
       id="g1480"
       transform="matrix(0.40466015,0.06142293,-0.06142293,0.40466015,197.87747,48.278485)">
      <path
         id="path1466"
         style="opacity:0.998;fill:#c6f4eb;fill-opacity:1;stroke:none;stroke-width:7.21546;stroke-dasharray:7.21546, 7.21546"
         d="m -451.60742,242.14258 a 26.25,26.25 0 0 0 -26.25,26.25 26.25,26.25 0 0 0 13.03515,22.68164 v 14.2832 h 26.42969 v -14.2832 a 26.25,26.25 0 0 0 13.03516,-22.68164 26.25,26.25 0 0 0 -26.25,-26.25 z"
         transform="scale(0.26458333)" />
      <rect
         style="opacity:0.998;fill:#413adb;fill-opacity:1;stroke:none;stroke-width:2.14679;stroke-dasharray:2.14679, 2.14679"
         id="rect1468"
         width="5.8586273"
         height="1.2520491"
         x="-122.41711"
         y="83.721725"
         ry="0.62602454" />
      <rect
         style="opacity:0.998;fill:#413adb;fill-opacity:1;stroke:none;stroke-width:2.14679;stroke-dasharray:2.14679, 2.14679"
         id="rect1470"
         width="5.8586273"
         height="1.2520491"
         x="-122.41711"
         y="85.406082"
         ry="0.62602454" />
      <rect
         style="opacity:0.998;fill:#413adb;fill-opacity:1;stroke:none;stroke-width:2.14679;stroke-dasharray:2.14679, 2.14679"
         id="rect1472"
         width="5.8586273"
         height="1.2520491"
         x="-122.41711"
         y="87.090446"
         ry="0.62602454" />
      <rect
         style="opacity:0.998;fill:#f2be03;fill-opacity:1;stroke:none;stroke-width:2.14679;stroke-dasharray:2.14679, 2.14679"
         id="rect1474"
         width="7.6961083"
         height="0.91796541"
         x="74.420303"
         y="119.02876"
         ry="0.45898271"
         transform="rotate(90)" />
      <path
         id="path1476"
         style="opacity:0.998;fill:#011e62;fill-opacity:1;stroke:none;stroke-width:2;stroke-dasharray:2, 2"
         d="m -122.98422,80.792483 v 0.415478 c 0,0.889947 0.71668,1.606621 1.60662,1.606621 h 3.77962 c 0.88994,0 1.60662,-0.716674 1.60662,-1.606621 v -0.415478 z" />
      <path
         style="fill:none;fill-opacity:1;stroke:#f2be03;stroke-width:1.065;stroke-linecap:round;stroke-linejoin:round;stroke-miterlimit:4;stroke-dasharray:none;stroke-opacity:1"
         d="m -123.73995,71.862722 1.08668,-0.944939 1.02315,1.772156 2.14627,-2.146263 2.14627,2.146263 1.02315,-1.772156 1.08668,0.944939"
         id="path1478"
         sodipodi:nodetypes="ccccccc" />
    </g>
    <g
       id="g1496"
       transform="matrix(0.07784228,-0.06605698,0.06605698,0.07784228,159.77813,130.04714)">
      <path
         style="fill:#c3f0ed;fill-opacity:1;stroke:none;stroke-width:0.318025px;stroke-linecap:butt;stroke-linejoin:miter;stroke-opacity:1"
         d="m 319.74908,-429.86717 25.27778,38.26207 74.47015,30.53047 -23.73979,-35.08181 z"
         id="path1482"
         sodipodi:nodetypes="ccccc" />
      <path
         style="fill:#69b5e4;fill-opacity:1;stroke:none;stroke-width:0.264583px;stroke-linecap:butt;stroke-linejoin:miter;stroke-opacity:1"
         d="m 329.93554,-421.97917 18.38854,28.31042 61.51563,25.4 -16.66875,-25.66458 z"
         id="path1484" />
      <path
         style="fill:#c6f3ed;fill-opacity:1;stroke:none;stroke-width:0.302038px;stroke-linecap:butt;stroke-linejoin:miter;stroke-opacity:1"
         d="m 328.452,-501.81634 -8.30604,67.20344 75.96254,34.13029 7.24891,-64.78714 z"
         id="path1486" />
      <path
         style="fill:#413bda;fill-opacity:1;stroke:none;stroke-width:0.264583px;stroke-linecap:butt;stroke-linejoin:miter;stroke-opacity:1"
         d="m 332.58137,-495.53333 -7.27604,58.86979 66.54271,29.89792 6.35,-56.75313 z"
         id="path1488" />
      <path
         style="fill:#6eb6e2;fill-opacity:1;stroke:none;stroke-width:0.264583px;stroke-linecap:butt;stroke-linejoin:miter;stroke-opacity:1"
         d="m 320.14596,-434.6129 -0.39688,4.74573 76.00814,33.71073 0.35128,-4.32617 z"
         id="path1490" />
      <path
         style="fill:#4039db;fill-opacity:1;stroke:none;stroke-width:0.264583px;stroke-linecap:butt;stroke-linejoin:miter;stroke-opacity:1"
         d="m 419.497,-361.07462 -3.10886,3.58764 -74.67863,-29.69948 -27.51667,-43.92083 7.67292,-65.0875 6.58625,-5.62155 -8.30604,67.20344 -0.39688,4.74573 25.27778,38.26207 74.47014,30.53048"
         id="path1492"
         sodipodi:nodetypes="cccccccccc" />
      <path
         style="fill:#c0f2ee;fill-opacity:1;stroke:none;stroke-width:0.264583px;stroke-linecap:butt;stroke-linejoin:miter;stroke-opacity:1"
         d="m 356.42397,-394.51993 38.91444,15.71545 -2.05797,-3.74177 -38.54027,-15.90254 z"
         id="path1494" />
    </g>
    <g
       id="g1520"
       transform="matrix(0.35545106,0,0,0.35545106,172.12836,29.391835)">
      <g
         id="g1508"
         style="stroke:#f2bf01;stroke-opacity:1"
         transform="translate(237.7697,46.90265)">
        <path
           style="fill:none;stroke:#f2bf01;stroke-width:1;stroke-linecap:butt;stroke-linejoin:miter;stroke-miterlimit:4;stroke-dasharray:none;stroke-opacity:1"
           d="m -111.88095,70.776041 v 10.205357 l 2.92931,2.929316 V 109.5186"
           id="path1498" />
        <path
           style="fill:none;stroke:#f2bf01;stroke-width:1;stroke-linecap:butt;stroke-linejoin:miter;stroke-miterlimit:4;stroke-dasharray:none;stroke-opacity:1"
           d="m -103.09301,74.177826 v 11.717263 l -5.78261,3.338592"
           id="path1500" />
        <path
           style="fill:none;stroke:#f2bf01;stroke-width:1;stroke-linecap:butt;stroke-linejoin:miter;stroke-miterlimit:4;stroke-dasharray:none;stroke-opacity:1"
           d="m -97.187127,59.011534 v 31.183034 l -6.656453,3.843105 V 110.3218"
           id="path1502" />
        <path
           style="fill:none;stroke:#f2bf01;stroke-width:1;stroke-linecap:butt;stroke-linejoin:miter;stroke-miterlimit:4;stroke-dasharray:none;stroke-opacity:1"
           d="m -88.540922,82.209822 v 5.669642 l -18.993298,18.993306"
           id="path1504" />
        <path
           style="fill:none;stroke:#f2bf01;stroke-width:1;stroke-linecap:butt;stroke-linejoin:miter;stroke-miterlimit:4;stroke-dasharray:none;stroke-opacity:1"
           d="M -97.801339,97.187127 V 107.95945"
           id="path1506" />
      </g>
      <circle
         style="opacity:0.998;fill:#c6f4eb;fill-opacity:1;stroke:none;stroke-width:1.1039;stroke-linecap:round;stroke-linejoin:round;stroke-miterlimit:4;stroke-dasharray:none;stroke-opacity:1"
         id="circle1510"
         cx="126.15121"
         cy="116.09205"
         r="2.8397388" />
      <circle
         style="opacity:0.998;fill:#c6f4eb;fill-opacity:1;stroke:none;stroke-width:1.1039;stroke-linecap:round;stroke-linejoin:round;stroke-miterlimit:4;stroke-dasharray:none;stroke-opacity:1"
         id="circle1512"
         cx="134.43657"
         cy="120.36836"
         r="2.8397388" />
      <circle
         style="opacity:0.998;fill:#413adb;fill-opacity:1;stroke:none;stroke-width:1.1039;stroke-linecap:round;stroke-linejoin:round;stroke-miterlimit:4;stroke-dasharray:none;stroke-opacity:1"
         id="circle1514"
         cx="140.65059"
         cy="103.79765"
         r="2.8397388" />
      <circle
         style="opacity:0.998;fill:#c6f4eb;fill-opacity:1;stroke:none;stroke-width:1.1039;stroke-linecap:round;stroke-linejoin:round;stroke-miterlimit:4;stroke-dasharray:none;stroke-opacity:1"
         id="circle1516"
         cx="140.65059"
         cy="103.79765"
         r="2.8397388" />
      <circle
         style="opacity:0.998;fill:#c6f4eb;fill-opacity:1;stroke:none;stroke-width:1.1039;stroke-linecap:round;stroke-linejoin:round;stroke-miterlimit:4;stroke-dasharray:none;stroke-opacity:1"
         id="circle1518"
         cx="149.1364"
         cy="127.0501"
         r="2.8397388" />
    </g>
    <g
       id="g1536"
       transform="matrix(0.40466015,0.06142293,-0.06142293,0.40466015,243.41163,48.278485)">
      <path
         id="path1522"
         style="opacity:0.998;fill:#c6f4eb;fill-opacity:1;stroke:none;stroke-width:7.21546;stroke-dasharray:7.21546, 7.21546"
         d="m -451.60742,242.14258 a 26.25,26.25 0 0 0 -26.25,26.25 26.25,26.25 0 0 0 13.03515,22.68164 v 14.2832 h 26.42969 v -14.2832 a 26.25,26.25 0 0 0 13.03516,-22.68164 26.25,26.25 0 0 0 -26.25,-26.25 z"
         transform="scale(0.26458333)" />
      <rect
         style="opacity:0.998;fill:#413adb;fill-opacity:1;stroke:none;stroke-width:2.14679;stroke-dasharray:2.14679, 2.14679"
         id="rect1524"
         width="5.8586273"
         height="1.2520491"
         x="-122.41711"
         y="83.721725"
         ry="0.62602454" />
      <rect
         style="opacity:0.998;fill:#413adb;fill-opacity:1;stroke:none;stroke-width:2.14679;stroke-dasharray:2.14679, 2.14679"
         id="rect1526"
         width="5.8586273"
         height="1.2520491"
         x="-122.41711"
         y="85.406082"
         ry="0.62602454" />
      <rect
         style="opacity:0.998;fill:#413adb;fill-opacity:1;stroke:none;stroke-width:2.14679;stroke-dasharray:2.14679, 2.14679"
         id="rect1528"
         width="5.8586273"
         height="1.2520491"
         x="-122.41711"
         y="87.090446"
         ry="0.62602454" />
      <rect
         style="opacity:0.998;fill:#f2be03;fill-opacity:1;stroke:none;stroke-width:2.14679;stroke-dasharray:2.14679, 2.14679"
         id="rect1530"
         width="7.6961083"
         height="0.91796541"
         x="74.420303"
         y="119.02876"
         ry="0.45898271"
         transform="rotate(90)" />
      <path
         id="path1532"
         style="opacity:0.998;fill:#011e62;fill-opacity:1;stroke:none;stroke-width:2;stroke-dasharray:2, 2"
         d="m -122.98422,80.792483 v 0.415478 c 0,0.889947 0.71668,1.606621 1.60662,1.606621 h 3.77962 c 0.88994,0 1.60662,-0.716674 1.60662,-1.606621 v -0.415478 z" />
      <path
         style="fill:none;fill-opacity:1;stroke:#f2be03;stroke-width:1.065;stroke-linecap:round;stroke-linejoin:round;stroke-miterlimit:4;stroke-dasharray:none;stroke-opacity:1"
         d="m -123.73995,71.862722 1.08668,-0.944939 1.02315,1.772156 2.14627,-2.146263 2.14627,2.146263 1.02315,-1.772156 1.08668,0.944939"
         id="path1534"
         sodipodi:nodetypes="ccccccc" />
    </g>
    <g
       id="g1552"
       transform="matrix(0.09228667,-0.04365908,0.04365908,0.09228667,190.3808,127.93296)">
      <path
         style="fill:#c3f0ed;fill-opacity:1;stroke:none;stroke-width:0.318025px;stroke-linecap:butt;stroke-linejoin:miter;stroke-opacity:1"
         d="m 319.74908,-429.86717 25.27778,38.26207 74.47015,30.53047 -23.73979,-35.08181 z"
         id="path1538"
         sodipodi:nodetypes="ccccc" />
      <path
         style="fill:#69b5e4;fill-opacity:1;stroke:none;stroke-width:0.264583px;stroke-linecap:butt;stroke-linejoin:miter;stroke-opacity:1"
         d="m 329.93554,-421.97917 18.38854,28.31042 61.51563,25.4 -16.66875,-25.66458 z"
         id="path1540" />
      <path
         style="fill:#c6f3ed;fill-opacity:1;stroke:none;stroke-width:0.302038px;stroke-linecap:butt;stroke-linejoin:miter;stroke-opacity:1"
         d="m 328.452,-501.81634 -8.30604,67.20344 75.96254,34.13029 7.24891,-64.78714 z"
         id="path1542" />
      <path
         style="fill:#413bda;fill-opacity:1;stroke:none;stroke-width:0.264583px;stroke-linecap:butt;stroke-linejoin:miter;stroke-opacity:1"
         d="m 332.58137,-495.53333 -7.27604,58.86979 66.54271,29.89792 6.35,-56.75313 z"
         id="path1544" />
      <path
         style="fill:#6eb6e2;fill-opacity:1;stroke:none;stroke-width:0.264583px;stroke-linecap:butt;stroke-linejoin:miter;stroke-opacity:1"
         d="m 320.14596,-434.6129 -0.39688,4.74573 76.00814,33.71073 0.35128,-4.32617 z"
         id="path1546" />
      <path
         style="fill:#4039db;fill-opacity:1;stroke:none;stroke-width:0.264583px;stroke-linecap:butt;stroke-linejoin:miter;stroke-opacity:1"
         d="m 419.497,-361.07462 -3.10886,3.58764 -74.67863,-29.69948 -27.51667,-43.92083 7.67292,-65.0875 6.58625,-5.62155 -8.30604,67.20344 -0.39688,4.74573 25.27778,38.26207 74.47014,30.53048"
         id="path1548"
         sodipodi:nodetypes="cccccccccc" />
      <path
         style="fill:#c0f2ee;fill-opacity:1;stroke:none;stroke-width:0.264583px;stroke-linecap:butt;stroke-linejoin:miter;stroke-opacity:1"
         d="m 356.42397,-394.51993 38.91444,15.71545 -2.05797,-3.74177 -38.54027,-15.90254 z"
         id="path1550" />
    </g>
    <g
       id="g1592"
       transform="matrix(0.40466015,0.06142293,-0.06142293,0.40466015,288.94577,48.278485)">
      <path
         id="path1578"
         style="opacity:0.998;fill:#c6f4eb;fill-opacity:1;stroke:none;stroke-width:7.21546;stroke-dasharray:7.21546, 7.21546"
         d="m -451.60742,242.14258 a 26.25,26.25 0 0 0 -26.25,26.25 26.25,26.25 0 0 0 13.03515,22.68164 v 14.2832 h 26.42969 v -14.2832 a 26.25,26.25 0 0 0 13.03516,-22.68164 26.25,26.25 0 0 0 -26.25,-26.25 z"
         transform="scale(0.26458333)" />
      <rect
         style="opacity:0.998;fill:#413adb;fill-opacity:1;stroke:none;stroke-width:2.14679;stroke-dasharray:2.14679, 2.14679"
         id="rect1580"
         width="5.8586273"
         height="1.2520491"
         x="-122.41711"
         y="83.721725"
         ry="0.62602454" />
      <rect
         style="opacity:0.998;fill:#413adb;fill-opacity:1;stroke:none;stroke-width:2.14679;stroke-dasharray:2.14679, 2.14679"
         id="rect1582"
         width="5.8586273"
         height="1.2520491"
         x="-122.41711"
         y="85.406082"
         ry="0.62602454" />
      <rect
         style="opacity:0.998;fill:#413adb;fill-opacity:1;stroke:none;stroke-width:2.14679;stroke-dasharray:2.14679, 2.14679"
         id="rect1584"
         width="5.8586273"
         height="1.2520491"
         x="-122.41711"
         y="87.090446"
         ry="0.62602454" />
      <rect
         style="opacity:0.998;fill:#f2be03;fill-opacity:1;stroke:none;stroke-width:2.14679;stroke-dasharray:2.14679, 2.14679"
         id="rect1586"
         width="7.6961083"
         height="0.91796541"
         x="74.420303"
         y="119.02876"
         ry="0.45898271"
         transform="rotate(90)" />
      <path
         id="path1588"
         style="opacity:0.998;fill:#011e62;fill-opacity:1;stroke:none;stroke-width:2;stroke-dasharray:2, 2"
         d="m -122.98422,80.792483 v 0.415478 c 0,0.889947 0.71668,1.606621 1.60662,1.606621 h 3.77962 c 0.88994,0 1.60662,-0.716674 1.60662,-1.606621 v -0.415478 z" />
      <path
         style="fill:none;fill-opacity:1;stroke:#f2be03;stroke-width:1.065;stroke-linecap:round;stroke-linejoin:round;stroke-miterlimit:4;stroke-dasharray:none;stroke-opacity:1"
         d="m -123.73995,71.862722 1.08668,-0.944939 1.02315,1.772156 2.14627,-2.146263 2.14627,2.146263 1.02315,-1.772156 1.08668,0.944939"
         id="path1590"
         sodipodi:nodetypes="ccccccc" />
    </g>
    <g
       id="g1608"
       transform="matrix(0.07784228,-0.06605698,0.06605698,0.07784228,250.84641,130.04714)">
      <path
         style="fill:#c3f0ed;fill-opacity:1;stroke:none;stroke-width:0.318025px;stroke-linecap:butt;stroke-linejoin:miter;stroke-opacity:1"
         d="m 319.74908,-429.86717 25.27778,38.26207 74.47015,30.53047 -23.73979,-35.08181 z"
         id="path1594"
         sodipodi:nodetypes="ccccc" />
      <path
         style="fill:#69b5e4;fill-opacity:1;stroke:none;stroke-width:0.264583px;stroke-linecap:butt;stroke-linejoin:miter;stroke-opacity:1"
         d="m 329.93554,-421.97917 18.38854,28.31042 61.51563,25.4 -16.66875,-25.66458 z"
         id="path1596" />
      <path
         style="fill:#c6f3ed;fill-opacity:1;stroke:none;stroke-width:0.302038px;stroke-linecap:butt;stroke-linejoin:miter;stroke-opacity:1"
         d="m 328.452,-501.81634 -8.30604,67.20344 75.96254,34.13029 7.24891,-64.78714 z"
         id="path1598" />
      <path
         style="fill:#413bda;fill-opacity:1;stroke:none;stroke-width:0.264583px;stroke-linecap:butt;stroke-linejoin:miter;stroke-opacity:1"
         d="m 332.58137,-495.53333 -7.27604,58.86979 66.54271,29.89792 6.35,-56.75313 z"
         id="path1600" />
      <path
         style="fill:#6eb6e2;fill-opacity:1;stroke:none;stroke-width:0.264583px;stroke-linecap:butt;stroke-linejoin:miter;stroke-opacity:1"
         d="m 320.14596,-434.6129 -0.39688,4.74573 76.00814,33.71073 0.35128,-4.32617 z"
         id="path1602" />
      <path
         style="fill:#4039db;fill-opacity:1;stroke:none;stroke-width:0.264583px;stroke-linecap:butt;stroke-linejoin:miter;stroke-opacity:1"
         d="m 419.497,-361.07462 -3.10886,3.58764 -74.67863,-29.69948 -27.51667,-43.92083 7.67292,-65.0875 6.58625,-5.62155 -8.30604,67.20344 -0.39688,4.74573 25.27778,38.26207 74.47014,30.53048"
         id="path1604"
         sodipodi:nodetypes="cccccccccc" />
      <path
         style="fill:#c0f2ee;fill-opacity:1;stroke:none;stroke-width:0.264583px;stroke-linecap:butt;stroke-linejoin:miter;stroke-opacity:1"
         d="m 356.42397,-394.51993 38.91444,15.71545 -2.05797,-3.74177 -38.54027,-15.90254 z"
         id="path1606" />
    </g>
  </g>
</svg>
