<?xml version="1.0" encoding="UTF-8" standalone="no"?>
<svg
   xmlns:dc="http://purl.org/dc/elements/1.1/"
   xmlns:cc="http://creativecommons.org/ns#"
   xmlns:rdf="http://www.w3.org/1999/02/22-rdf-syntax-ns#"
   xmlns:svg="http://www.w3.org/2000/svg"
   xmlns="http://www.w3.org/2000/svg"
   xmlns:sodipodi="http://sodipodi.sourceforge.net/DTD/sodipodi-0.dtd"
   xmlns:inkscape="http://www.inkscape.org/namespaces/inkscape"
   width="600"
   height="400"
   viewBox="0 0 158.75 105.83333"
   version="1.1"
   id="svg8"
   inkscape:version="1.0.2-2 (e86c870879, 2021-01-15)"
   sodipodi:docname="science.svg">
  <defs
     id="defs2" />
  <sodipodi:namedview
     id="base"
     pagecolor="#ffffff"
     bordercolor="#666666"
     borderopacity="1.0"
     inkscape:pageopacity="0.0"
     inkscape:pageshadow="2"
     inkscape:zoom="0.98994949"
     inkscape:cx="388.40057"
     inkscape:cy="337.18394"
     inkscape:document-units="mm"
     inkscape:current-layer="layer1"
     inkscape:document-rotation="0"
     showgrid="false"
     inkscape:window-width="1920"
     inkscape:window-height="1001"
     inkscape:window-x="-11"
     inkscape:window-y="-11"
     inkscape:window-maximized="1"
     units="px" />
  <metadata
     id="metadata5">
    <rdf:RDF>
      <cc:Work
         rdf:about="">
        <dc:format>image/svg+xml</dc:format>
        <dc:type
           rdf:resource="http://purl.org/dc/dcmitype/StillImage" />
        <dc:title />
      </cc:Work>
    </rdf:RDF>
  </metadata>
  <g
     inkscape:label="Шар 1"
     inkscape:groupmode="layer"
     id="layer1">
    <rect
       style="fill:#0ec167;fill-opacity:1;stroke:none;stroke-width:0.51773;stroke-linejoin:bevel"
       id="rect1717"
       width="158.75"
       height="105.83334"
       x="0"
       y="2.9928775e-05" />
    <path
       id="path1721"
       style="fill:#0da053;fill-opacity:1;stroke:none;stroke-width:0.39889px;stroke-linecap:butt;stroke-linejoin:miter;stroke-opacity:1"
       d="M 3.14488e-6,0 V 105.83333 H 75.50625 c -0.1581,-1.9809 -0.474555,-3.79011 -1.03679,-5.1406 C 72.4957,95.95146 64.634175,95.71442 62.34994,91.113045 59.781985,85.94002 64.526965,79.02118 62.039005,73.80963 59.769635,69.055945 52.14611,68.38596 49.9195,63.61233 c -2.745771,-5.886675 2.76125,-13.58752 0,-19.467014 C 47.461551,38.911586 38.778651,38.358334 36.556953,33.02119 34.38105,27.794081 39.917554,21.783005 38.071881,16.117116 37.991297,15.869905 37.900991,15.633201 37.800026,15.408592 35.659093,10.650688 27.45707,10.611001 25.369538,5.829693 24.702168,4.3010666 24.577723,2.196722 24.722609,0 Z" />
    <g
       id="g2209"
       transform="matrix(-0.21549898,-0.03521853,-0.03521853,0.21549898,653.13078,97.242775)">
      <path
         style="color:#000000;font-style:normal;font-variant:normal;font-weight:normal;font-stretch:normal;font-size:medium;line-height:normal;font-family:sans-serif;font-variant-ligatures:normal;font-variant-position:normal;font-variant-caps:normal;font-variant-numeric:normal;font-variant-alternates:normal;font-variant-east-asian:normal;font-feature-settings:normal;font-variation-settings:normal;text-indent:0;text-align:start;text-decoration:none;text-decoration-line:none;text-decoration-style:solid;text-decoration-color:#000000;letter-spacing:normal;word-spacing:normal;text-transform:none;writing-mode:lr-tb;direction:ltr;text-orientation:mixed;dominant-baseline:auto;baseline-shift:baseline;text-anchor:start;white-space:normal;shape-padding:0;shape-margin:0;inline-size:0;clip-rule:nonzero;display:inline;overflow:visible;visibility:visible;opacity:1;isolation:auto;mix-blend-mode:normal;color-interpolation:sRGB;color-interpolation-filters:linearRGB;solid-color:#000000;solid-opacity:1;vector-effect:none;fill:#f47a62;fill-opacity:1;fill-rule:nonzero;stroke:none;stroke-linecap:butt;stroke-linejoin:miter;stroke-miterlimit:4;stroke-dasharray:none;stroke-dashoffset:0;stroke-opacity:1;color-rendering:auto;image-rendering:auto;shape-rendering:auto;text-rendering:auto;enable-background:accumulate;stop-color:#000000;stop-opacity:1"
         d="m 2884.2842,336.78125 -15.4082,7.17969 c 0,0 3.3893,7.28602 6.5586,16.46484 3.1693,9.17882 5.6487,20.60656 5.0781,25.4668 -1.0234,8.71675 -6.643,18.25716 -13.7383,25.11328 -4.7797,4.61854 -16.8163,10.99005 -27.1933,15.36914 -10.3771,4.37909 -19.1446,7.21094 -19.1446,7.21094 l 5.2207,16.17968 c 0,0 9.4115,-3.03321 20.5332,-7.72656 11.1218,-4.69334 23.9035,-10.60007 32.3985,-18.80859 9.3653,-9.04955 17.1609,-21.33854 18.8066,-35.35547 1.3002,-11.07394 -2.4072,-22.90386 -5.8926,-32.99805 -3.4853,-10.09419 -7.2187,-18.0957 -7.2187,-18.0957 z"
         id="path2179" />
      <g
         id="g2177"
         transform="translate(72.727119,6.7903662)">
        <circle
           style="opacity:1;fill:#caf4eb;fill-opacity:1;stroke:none;stroke-width:2.52932;stroke-opacity:1"
           id="circle2171"
           cx="2713.7373"
           cy="431.84634"
           r="15.695672"
           transform="rotate(-1.6914809)" />
        <path
           id="path2164"
           style="opacity:1;fill:#ff82b6;fill-opacity:1;stroke:none;stroke-width:2.4718;stroke-opacity:1"
           d="m 2741.9752,321.01558 -26.6354,12.05541 18.3505,37.70061 27.0669,-12.25104 z" />
        <circle
           style="opacity:1;fill:#ff82b8;fill-opacity:1;stroke:none;stroke-width:3;stroke-opacity:1"
           id="path2162"
           cx="2842.1091"
           cy="378.3522"
           r="18.616447"
           transform="rotate(-1.6914809)" />
        <path
           id="rect2157"
           style="opacity:1;fill:#f2cc61;fill-opacity:1;stroke:none;stroke-width:3;stroke-opacity:1"
           d="m 2840.0155,272.60428 c -1.201,0.0304 -2.4172,0.29782 -3.5843,0.82548 l -107.9541,48.80963 22.2828,45.73042 106.6201,-48.20679 c 4.6683,-2.11025 6.7273,-7.56783 4.6165,-12.23595 l -13.3302,-29.48021 c -1.582,-3.50157 -5.0485,-5.53481 -8.6518,-5.44225 z" />
      </g>
      <path
         id="path2181"
         style="opacity:1;fill:#ff82b8;fill-opacity:1;stroke:none;stroke-width:17;stroke-miterlimit:4;stroke-dasharray:none;stroke-opacity:1"
         d="m 2793.7914,412.44225 a 62.419436,62.419436 0 0 0 -55.1227,33.13388 l 114.361,48.95876 a 62.419436,62.419436 0 0 0 3.1812,-19.6732 62.419436,62.419436 0 0 0 -62.4195,-62.41944 z" />
      <path
         style="fill:#3646c7;fill-opacity:1;stroke:none;stroke-width:0.264583px;stroke-linecap:butt;stroke-linejoin:miter;stroke-opacity:1"
         d="m 2836.7772,432.05575 -94.0924,-37.68993 -1.8545,3.7499 94.0924,37.68994 z"
         id="path2196"
         sodipodi:nodetypes="ccccc" />
      <path
         style="fill:#c7f4e9;fill-opacity:1;stroke:none;stroke-width:0.264583px;stroke-linecap:butt;stroke-linejoin:miter;stroke-opacity:1"
         d="m 2742.6848,394.36579 -7.0832,-9.39141 78.3076,31.31111 22.868,15.77025 z"
         id="path2198" />
    </g>
    <path
       style="fill:none;stroke:#413adb;stroke-width:1.81429;stroke-linecap:round;stroke-linejoin:miter;stroke-miterlimit:4;stroke-dasharray:none;stroke-opacity:1"
       d="m 54.994992,118.25146 v -49.6664 c 0,0 -0.173825,-3.563965 1.00649,-4.597295 1.006235,-0.88091 3.998275,-0.33227 3.998275,-0.33227 l 18.6586,-0.07136"
       id="path940"
       sodipodi:nodetypes="ccacc" />
    <g
       id="g2071"
       transform="matrix(0.2363304,-0.00438212,0.00438212,0.2363304,-584.76833,55.888915)">
      <path
         id="path1986"
         style="fill:#c7f4e9;fill-opacity:1;stroke:none;stroke-width:3;stroke-opacity:1"
         d="m 2740.614,-21.135424 c -1.9788,0 -3.5718,1.593056 -3.5718,3.571875 v 0.631481 c 0,1.405017 0.8051,2.612284 1.9791,3.196193 l -0.6739,64.254485 a 35.921021,35.921021 0 0 0 -21.1805,32.381481 35.921021,35.921021 0 0 0 35.5426,36.295459 35.921021,35.921021 0 0 0 36.2958,-35.542534 35.921021,35.921021 0 0 0 -20.497,-32.818679 l 0.6765,-64.530419 c 1.2187,-0.567451 2.0619,-1.79832 2.0619,-3.235986 v -0.631481 c 0,-1.978819 -1.593,-3.571875 -3.5719,-3.571875 z" />
      <g
         id="g2009"
         transform="translate(2936.1371,25.933157)">
        <rect
           style="opacity:1;fill:#3e3add;fill-opacity:1;stroke:none;stroke-width:2.09375;stroke-opacity:1"
           id="rect2000"
           width="14.719653"
           height="3.5546849"
           x="-180.07617"
           y="-27.775059"
           ry="1.7773423" />
        <rect
           style="opacity:1;fill:#3e3add;fill-opacity:1;stroke:none;stroke-width:2.09375;stroke-opacity:1"
           id="rect2002"
           width="14.719653"
           height="3.5546849"
           x="-180.07617"
           y="-15.333708"
           ry="1.7773423" />
        <rect
           style="opacity:1;fill:#3e3add;fill-opacity:1;stroke:none;stroke-width:2.09375;stroke-opacity:1"
           id="rect2004"
           width="14.719653"
           height="3.5546849"
           x="-180.07617"
           y="-2.8922658"
           ry="1.7773423" />
      </g>
      <path
         id="path2013"
         style="fill:#ff82b6;fill-opacity:1;stroke:none;stroke-width:3;stroke-opacity:1"
         d="m 2785.4044,67.596617 c -0.1606,1.589881 -14.5829,2.871152 -32.3184,2.871152 -17.733,0 -32.1541,-1.280953 -32.3179,-2.870623 -2.3157,4.772501 -3.5455,9.998631 -3.6013,15.302944 -0.2079,19.83751 15.705,36.0875 35.5425,36.29546 19.8377,0.20818 36.088,-15.70482 36.296,-35.542535 0.058,-5.558657 -1.1743,-11.054979 -3.6009,-16.056398 z"
         sodipodi:nodetypes="csccssc" />
      <ellipse
         style="opacity:1;fill:#e567a1;fill-opacity:1;stroke:none;stroke-width:2.39733;stroke-opacity:1"
         id="path2037"
         cx="2753.0859"
         cy="67.853928"
         rx="32.300034"
         ry="3.423672" />
      <g
         id="g2057"
         style="fill:#c7f4e9;fill-opacity:1"
         transform="translate(17.680831,21.625369)">
        <circle
           style="opacity:1;fill:#c7f4e9;fill-opacity:1;stroke:none;stroke-width:3;stroke-opacity:1"
           id="path2039"
           cx="2743.95"
           cy="-67.831696"
           r="10.153289" />
        <circle
           style="opacity:1;fill:#c7f4e9;fill-opacity:1;stroke:none;stroke-width:1.78613;stroke-opacity:1"
           id="circle2041"
           cx="2727.4541"
           cy="-95.736748"
           r="6.0450063" />
        <circle
           style="opacity:1;fill:#c7f4e9;fill-opacity:1;stroke:none;stroke-width:1.23361;stroke-opacity:1"
           id="circle2043"
           cx="2743.0076"
           cy="-113.84673"
           r="4.1750522" />
        <circle
           style="opacity:1;fill:#c7f4e9;fill-opacity:1;stroke:none;stroke-width:1.11635;stroke-opacity:1"
           id="circle2045"
           cx="2734.9829"
           cy="-135.67024"
           r="3.7781808" />
      </g>
    </g>
    <path
       style="fill:none;fill-opacity:1;stroke:#413adb;stroke-width:1.81429;stroke-linecap:round;stroke-linejoin:miter;stroke-miterlimit:4;stroke-dasharray:none;stroke-opacity:1"
       d="M 55.412217,65.51101 H 76.426002"
       id="path942"
       sodipodi:nodetypes="cc" />
    <g
       id="g962"
       transform="matrix(1.5119047,0,0,1.5119047,-522.18707,-56.928215)">
      <ellipse
         style="opacity:0.998;fill:none;fill-opacity:1;stroke:#413adb;stroke-width:0.761747;stroke-linecap:round;stroke-miterlimit:4;stroke-dasharray:none;stroke-opacity:1"
         id="path944"
         cx="357.3056"
         cy="54.948288"
         rx="2.0243721"
         ry="6.1112394" />
      <circle
         style="opacity:0.998;fill:#f2bf03;fill-opacity:1;stroke:none;stroke-width:0.7;stroke-linecap:round;stroke-miterlimit:4;stroke-dasharray:none;stroke-opacity:1"
         id="path946"
         cx="357.3056"
         cy="54.948288"
         r="0.96856397" />
      <ellipse
         style="opacity:0.998;fill:none;fill-opacity:1;stroke:#413adb;stroke-width:0.761747;stroke-linecap:round;stroke-miterlimit:4;stroke-dasharray:none;stroke-opacity:1"
         id="ellipse948"
         cx="131.06619"
         cy="336.90988"
         rx="2.0243721"
         ry="6.1112394"
         transform="rotate(-60)" />
      <ellipse
         style="opacity:0.998;fill:none;fill-opacity:1;stroke:#413adb;stroke-width:0.761747;stroke-linecap:round;stroke-miterlimit:4;stroke-dasharray:none;stroke-opacity:1"
         id="ellipse950"
         cx="226.23941"
         cy="-281.96158"
         rx="2.0243721"
         ry="6.1112394"
         transform="rotate(60)" />
      <circle
         style="opacity:0.998;fill:#f2bf03;fill-opacity:1;stroke:none;stroke-width:0.7;stroke-linecap:round;stroke-miterlimit:4;stroke-dasharray:none;stroke-opacity:1"
         id="circle952"
         cx="353.95105"
         cy="51.310268"
         r="0.96856397" />
      <circle
         style="opacity:0.998;fill:#f2cc61;fill-opacity:1;stroke:none;stroke-width:0.7;stroke-linecap:round;stroke-miterlimit:4;stroke-dasharray:none;stroke-opacity:1"
         id="circle954"
         cx="360.9436"
         cy="58.397324"
         r="0.96856397" />
    </g>
  </g>
</svg>
