<?xml version="1.0" encoding="UTF-8" standalone="no"?>
<svg
   xmlns:dc="http://purl.org/dc/elements/1.1/"
   xmlns:cc="http://creativecommons.org/ns#"
   xmlns:rdf="http://www.w3.org/1999/02/22-rdf-syntax-ns#"
   xmlns:svg="http://www.w3.org/2000/svg"
   xmlns="http://www.w3.org/2000/svg"
   xmlns:sodipodi="http://sodipodi.sourceforge.net/DTD/sodipodi-0.dtd"
   xmlns:inkscape="http://www.inkscape.org/namespaces/inkscape"
   width="18mm"
   height="21.5mm"
   viewBox="0 0 18 21.5"
   version="1.1"
   id="svg8"
   inkscape:version="1.0 (4035a4fb49, 2020-05-01)"
   sodipodi:docname="click.svg">
  <defs
     id="defs2" />
  <sodipodi:namedview
     id="base"
     pagecolor="#ffffff"
     bordercolor="#666666"
     borderopacity="1.0"
     inkscape:pageopacity="0.0"
     inkscape:pageshadow="2"
     inkscape:zoom="5.6"
     inkscape:cx="60.158138"
     inkscape:cy="59.512782"
     inkscape:document-units="mm"
     inkscape:current-layer="layer1"
     inkscape:document-rotation="0"
     showgrid="false"
     inkscape:window-width="1920"
     inkscape:window-height="1017"
     inkscape:window-x="1272"
     inkscape:window-y="-8"
     inkscape:window-maximized="1" />
  <metadata
     id="metadata5">
    <rdf:RDF>
      <cc:Work
         rdf:about="">
        <dc:format>image/svg+xml</dc:format>
        <dc:type
           rdf:resource="http://purl.org/dc/dcmitype/StillImage" />
        <dc:title></dc:title>
      </cc:Work>
    </rdf:RDF>
  </metadata>
  <g
     inkscape:label="Слой 1"
     inkscape:groupmode="layer"
     id="layer1">
    <path
       id="path831"
       d="M 10.282618,21.429781 C 8.8507715,21.280831 7.9245626,20.965236 7.0403137,20.325001 6.2362534,19.742826 0.37567212,13.948476 0.18003956,13.542256 c -0.26862661,-0.557787 -0.23551765,-1.250697 0.0917208,-1.919548 0.45111766,-0.92205 1.37009644,-1.350299 2.41618614,-1.125952 0.443245,0.09506 0.6151933,0.213163 1.3707302,0.941503 l 0.863908,0.83281 V 8.0194776 3.7678872 L 5.1945428,3.2472999 C 5.4147021,2.8258669 5.5656555,2.6749136 5.9870883,2.4547543 7.069686,1.8891985 8.2040207,2.2376709 8.7581869,3.3060472 c 0.1738653,0.3351947 0.203734,0.5751613 0.2102618,1.6892249 0.00735,1.2559748 0.014008,1.2961628 0.2029545,1.2263244 0.1074418,-0.039713 0.4843682,-0.074634 0.8376148,-0.077604 0.542559,-0.00457 0.705266,0.036317 1.048067,0.2633128 0.223189,0.1477919 0.494487,0.4425573 0.602885,0.6550342 l 0.197086,0.3863217 0.403168,-0.1422457 c 0.221741,-0.078235 0.552889,-0.1422456 0.735883,-0.1422456 0.655804,0 1.433884,0.486136 1.75166,1.0944198 0.136749,0.2617636 0.141719,0.2628854 0.540767,0.1220925 1.00945,-0.3561543 1.943872,0.016039 2.463268,0.9811526 0.196187,0.3645447 0.212405,0.5531639 0.242291,2.8179162 0.03454,2.617409 -0.08352,4.647841 -0.324571,5.582048 -0.499121,1.934377 -1.739069,3.087809 -3.765401,3.502674 -0.915675,0.187473 -2.648205,0.266556 -3.621503,0.165308 z m 3.666395,-1.272292 c 1.589651,-0.407643 2.333414,-1.145503 2.759453,-2.737549 0.145459,-0.543557 0.170566,-1.122736 0.174541,-4.026433 l 0.0047,-3.391552 -0.268603,-0.269003 C 16.219544,9.3328588 15.648164,9.3530273 15.266029,9.78071 l -0.283023,0.316761 v 1.382624 c 0,1.149476 -0.02726,1.412742 -0.161649,1.561243 -0.201028,0.222133 -0.49981,0.22904 -0.734144,0.01697 -0.160976,-0.145681 -0.178621,-0.343009 -0.178621,-1.99772 0,-1.1649792 -0.04065,-1.9252822 -0.111207,-2.0801459 -0.11062,-0.2427845 -0.610865,-0.54651 -0.900117,-0.54651 -0.3064,0 -0.643661,0.2307218 -0.790938,0.5410834 -0.116164,0.2447999 -0.151217,0.6673168 -0.151217,1.8227375 0,1.621401 -0.03384,1.738487 -0.502367,1.738487 -0.523548,0 -0.572047,-0.213647 -0.572047,-2.519934 V 7.9305351 l -0.28551,-0.2855086 c -0.394047,-0.3940479 -0.8907409,-0.3940479 -1.2847878,0 L 9.0248926,7.9305351 9.0174381,9.4764138 C 9.0092589,11.177642 8.9968451,11.309105 8.8255329,11.515518 8.6831322,11.687103 8.2294775,11.701737 8.0677059,11.539963 7.9809678,11.453242 7.9504785,10.52904 7.9504785,7.9870733 7.9504785,6.0974478 7.923133,4.4146609 7.88971,4.2475468 7.7334579,3.4662875 6.83811,3.1824639 6.2825072,3.7380668 L 5.9969987,4.0235754 V 9.426432 14.82929 L 4.4573348,13.291881 C 3.3933808,12.229486 2.8178316,11.72584 2.594535,11.661799 1.8533272,11.449223 1.0367925,12.107942 1.1514708,12.825954 c 0.045666,0.285923 0.513812,0.799166 3.0114256,3.301524 1.6265442,1.629635 3.2093714,3.132703 3.5173938,3.340151 0.6553531,0.441371 1.5108145,0.74498 2.4678538,0.87586 1.015992,0.138943 2.891658,0.04715 3.800869,-0.186 z M 3.7104849,6.8660318 C 3.5541766,6.6808232 3.2920766,6.2435925 3.1280402,5.8944079 2.743997,5.0768946 2.6524509,3.7786287 2.9204093,2.9498812 3.7207599,0.47453828 6.4715207,-0.70056231 8.8080201,0.43474597 10.34598,1.1820424 11.33944,2.9900574 11.130591,4.6616293 11.071156,5.1373263 11.034659,5.2146316 10.897164,5.1560595 10.807527,5.1178746 10.589045,5.0337142 10.411648,4.9690362 10.089817,4.8516978 10.089057,4.8498537 10.064808,4.1275807 10.035517,3.2551185 9.8005798,2.6771923 9.2184792,2.0456879 7.7951751,0.50158513 5.2092925,0.81576535 4.2085929,2.6543804 3.8085018,3.3894797 3.7228147,4.0104939 3.901869,4.8773515 3.9870157,5.2895753 4.0392025,5.9461897 4.0230506,6.4020728 l -0.028369,0.8007019 z"
       style="fill:#333333;stroke-width:0.097674;fill-opacity:1" />
  </g>
</svg>
