<?xml version="1.0" encoding="UTF-8" standalone="no"?>
<svg
   xmlns:dc="http://purl.org/dc/elements/1.1/"
   xmlns:cc="http://creativecommons.org/ns#"
   xmlns:rdf="http://www.w3.org/1999/02/22-rdf-syntax-ns#"
   xmlns:svg="http://www.w3.org/2000/svg"
   xmlns="http://www.w3.org/2000/svg"
   xmlns:sodipodi="http://sodipodi.sourceforge.net/DTD/sodipodi-0.dtd"
   xmlns:inkscape="http://www.inkscape.org/namespaces/inkscape"
   sodipodi:docname="logo.svg"
   inkscape:version="1.0 (4035a4fb49, 2020-05-01)"
   id="svg8"
   version="1.1"
   viewBox="0 0 46.485001 9.3100005"
   height="9.3100004mm"
   width="46.485001mm">
  <defs
     id="defs2" />
  <sodipodi:namedview
     inkscape:window-maximized="1"
     inkscape:window-y="-8"
     inkscape:window-x="1272"
     inkscape:window-height="1017"
     inkscape:window-width="1920"
     showgrid="false"
     inkscape:document-rotation="0"
     inkscape:current-layer="layer1"
     inkscape:document-units="mm"
     inkscape:cy="-8.1243227"
     inkscape:cx="76.905913"
     inkscape:zoom="3.959798"
     inkscape:pageshadow="2"
     inkscape:pageopacity="0.0"
     borderopacity="1.0"
     bordercolor="#666666"
     pagecolor="#ffffff"
     id="base" />
  <metadata
     id="metadata5">
    <rdf:RDF>
      <cc:Work
         rdf:about="">
        <dc:format>image/svg+xml</dc:format>
        <dc:type
           rdf:resource="http://purl.org/dc/dcmitype/StillImage" />
        <dc:title></dc:title>
      </cc:Work>
    </rdf:RDF>
  </metadata>
  <g
     id="layer1"
     inkscape:groupmode="layer"
     inkscape:label="Шар 1">
    <path
       d="m 4.2031684,1.2697745 c -0.0031,0 -0.025517,0.00551 -0.050275,0.012039 -0.1982388,0.050847 -0.36893,0.1218095 -0.5408024,0.2248083 l -0.036001,0.021588 0.00278,0.017626 c 0.00139,0.00933 0.012288,0.083266 0.02415,0.1641476 0.011851,0.080875 0.023189,0.157626 0.025089,0.1704178 l 0.00363,0.023499 -0.050531,0.041235 c -0.09197,0.075196 -0.173295,0.1551835 -0.2439843,0.2410168 -0.02225,0.026595 -0.041905,0.048921 -0.044307,0.04971 -0.0031,8.396e-4 -0.3339428,-0.050241 -0.3672179,-0.056588 -0.0063,-0.00146 -0.011936,0.00607 -0.036727,0.047681 -0.084215,0.1402447 -0.1556998,0.3033041 -0.2023886,0.4608601 -0.014765,0.049243 -0.030139,0.1096107 -0.029851,0.1172484 0,0.00279 0.066759,0.054397 0.148032,0.1148348 0.080906,0.06011 0.148946,0.1106359 0.1507386,0.1119542 0.00182,0.00168 6.192e-4,0.024671 -0.00246,0.052946 -0.00384,0.037023 -0.0063,0.069505 -0.00801,0.1014297 H 3.6347377 C 3.6448802,3.0780825 3.6720196,2.9716037 3.7160169,2.8704466 3.8679501,2.5231237 4.1895998,2.2914524 4.5692823,2.2553992 V 1.5668148 c -0.046421,0.00209 -0.091785,0.0046 -0.1064754,0.00635 L 4.431664,1.5771496 4.320049,1.4233505 C 4.2480476,1.3236002 4.2066425,1.2692375 4.2031865,1.2697187 Z m 0.9386158,0.00952 c -0.00406,-6.955e-4 -0.00683,-6.955e-4 -0.00801,3.5e-5 -0.00342,0.00154 -0.1937739,0.2547376 -0.2224272,0.295485 -0.00299,0.00468 -0.010249,0.00454 -0.054247,0 -0.039535,-0.00432 -0.072994,-0.00691 -0.1058988,-0.00862 v 0.6900204 c 0.2566459,0.022877 0.4917053,0.1378313 0.6677852,0.3283995 0.0292,0.031471 0.05667,0.06578 0.082112,0.1020778 L 6.3255983,2.2106693 c -0.027268,0.00405 -0.040634,0.006 -0.07814,0.011745 -0.070154,0.010388 -0.1461802,0.021343 -0.1686476,0.024656 l -0.040805,0.00606 -0.041243,-0.050533 C 5.9737763,2.1746461 5.9391955,2.1343108 5.9195937,2.113177 5.8796534,2.0695416 5.7659918,1.9637673 5.7294658,1.9363423 c -0.013239,-0.00991 -0.024075,-0.020611 -0.024182,-0.023388 0,-0.00314 0.012897,-0.088086 0.029125,-0.1888387 0.016228,-0.1007454 0.029317,-0.1836561 0.029307,-0.183998 0,-0.00244 -0.107795,-0.064274 -0.1493293,-0.086294 C 5.5416483,1.4159956 5.4256506,1.3659512 5.3474057,1.3384135 5.2638524,1.3094336 5.1702709,1.2826915 5.1417735,1.2792665 Z m 1.3460585,1.04776 -0.8954732,0.5169734 c 0.026595,0.056393 0.04814,0.1147652 0.063578,0.1731591 0.014776,0.056099 0.024726,0.1125542 0.030022,0.169044 h 0.688829 C 6.3728785,3.145247 6.3706385,3.105447 6.3689285,3.089489 L 6.3647624,3.0531575 6.5185618,2.9414613 C 6.6034176,2.8800893 6.6727072,2.8290951 6.6726474,2.8277002 6.6722748,2.8207285 6.6506968,2.7371518 6.6378958,2.6941936 6.6008168,2.5673826 6.5509155,2.445573 6.4878843,2.3270554 Z m -3.542606,1.0410539 c 0.00192,0.044089 0.00448,0.08861 0.0063,0.1057537 l 0.00416,0.036333 -0.1538325,0.1116613 c -0.084856,0.061362 -0.1540835,0.1127428 -0.1540162,0.1144719 3.726e-4,0.00729 0.026403,0.1063601 0.040367,0.1523948 0.0363,0.1191591 0.080329,0.2251847 0.1415078,0.3402569 L 3.7248377,3.7121808 C 3.6895309,3.6356099 3.6630749,3.5544506 3.6472739,3.4699701 3.6409748,3.4361185 3.6365975,3.4021325 3.6337576,3.368109 Z M 3.8152643,3.8700502 2.974902,4.3552392 c 0.043036,-0.00607 0.1077448,-0.015632 0.2356915,-0.034641 l 0.071905,-0.010452 0.036833,0.045129 c 0.075952,0.093324 0.1736714,0.1917473 0.2598425,0.2620756 0.018673,0.015257 0.034538,0.029566 0.035328,0.031973 0.00117,0.00307 -0.049677,0.3311267 -0.056627,0.3668519 -0.00139,0.0063 0.00459,0.011285 0.037698,0.030855 0.1341837,0.080276 0.2708231,0.1427217 0.4162733,0.1909254 0.072194,0.023947 0.1677086,0.04909 0.1745575,0.046378 0.00278,-0.00117 0.054663,-0.069204 0.1154125,-0.1515233 l 0.1102944,-0.1489353 0.015683,0.00117 c 0.00875,6.887e-4 0.03141,0.00299 0.050606,0.00491 0.026125,0.00299 0.05746,0.00512 0.090941,0.00651 V 4.3072017 C 4.4243667,4.2944393 4.2813706,4.251152 4.1508318,4.1767989 4.0159348,4.1000048 3.9020159,3.9945512 3.8152643,3.8700283 Z"
       style="fill:#7bf4ff;fill-opacity:1;stroke:none;stroke-width:0.000347348"
       id="path1868"
       inkscape:connector-curvature="0" />
    <rect
       transform="rotate(45)"
       ry="2.293503"
       y="-3.9618993"
       x="2.6213536"
       height="7.9238057"
       width="7.9238057"
       id="rect1870"
       style="fill:#413bda;fill-opacity:1;stroke:none;stroke-width:0.323602;stroke-linecap:round;stroke-linejoin:round;stroke-miterlimit:4;stroke-dasharray:none;stroke-opacity:1" />
    <path
       d="m 4.2031684,1.2697745 c -0.0031,0 -0.025506,0.00551 -0.050275,0.012046 -0.1982388,0.05084 -0.3689268,0.1218029 -0.5407992,0.2248016 l -0.036011,0.021588 0.00278,0.017626 c 0.00139,0.00933 0.012288,0.083266 0.02415,0.1641475 0.011851,0.080874 0.023189,0.157626 0.025089,0.1704178 l 0.00363,0.023499 -0.050531,0.041236 C 3.4892352,2.0203334 3.4079099,2.1003209 3.3372196,2.186161 3.3149696,2.212749 3.2953256,2.235076 3.2929236,2.235865 3.2898236,2.2367046 2.958984,2.185624 2.925709,2.179277 2.919409,2.177817 2.913773,2.185347 2.888982,2.226958 2.804767,2.3672095 2.7332832,2.5302621 2.6865944,2.6878181 c -0.014765,0.049243 -0.030139,0.1096179 -0.029851,0.1172484 0,0.00279 0.06677,0.054397 0.1480342,0.1148348 0.080906,0.06011 0.1489438,0.110636 0.1507353,0.1119543 0.00182,0.00168 6.192e-4,0.024671 -0.00246,0.052946 -0.00384,0.037024 -0.0063,0.069505 -0.00801,0.1014297 h 0.6896985 c 0.00128,-0.013518 0.00278,-0.027021 0.00459,-0.040476 0.00363,-0.026916 0.00833,-0.053679 0.013986,-0.080274 0.00566,-0.026588 0.012459,-0.052989 0.020296,-0.079151 0.011744,-0.039233 0.02589,-0.077944 0.042396,-0.1158809 0.028484,-0.065118 0.062937,-0.1261694 0.1026105,-0.1826311 0.00662,-0.00941 0.013399,-0.018706 0.020296,-0.027865 0.1725349,-0.2288278 0.4337321,-0.3763889 0.73036,-0.4045535 v -0.688585 c -0.046431,0.00209 -0.091795,0.0046 -0.1064754,0.00635 l -0.031143,0.00398 -0.1116652,-0.153797 C 4.2480508,1.3235998 4.2066425,1.2692375 4.2031865,1.2697187 Z m 0.9386158,0.00952 c -0.00406,-6.955e-4 -0.00683,-6.955e-4 -0.00801,3.5e-5 -0.00342,0.00154 -0.1937739,0.2547376 -0.222424,0.295485 -0.00299,0.00468 -0.010249,0.00454 -0.054247,0 -0.039545,-0.00432 -0.072994,-0.00691 -0.1058988,-0.00862 v 0.6900204 c 0.256647,0.022877 0.4917053,0.1378313 0.6677863,0.3283995 0.0292,0.031471 0.05667,0.06578 0.082112,0.1020778 L 6.0952893,2.3360643 6.0380106,2.2531602 5.9967785,2.2026269 C 5.9737816,2.1746793 5.9392115,2.1343355 5.9196097,2.1132016 5.8796694,2.0695737 5.7660078,1.963799 5.7294818,1.936374 5.7162325,1.9264663 5.7054066,1.9157558 5.7052999,1.91298 c 0,-0.00314 0.012897,-0.088086 0.029125,-0.1888317 0.016228,-0.1007454 0.029317,-0.1836565 0.029307,-0.1840051 0,-0.00244 -0.1077993,-0.064274 -0.1493303,-0.086286 -0.072738,-0.037832 -0.188735,-0.087876 -0.266981,-0.115414 -0.083553,-0.02898 -0.1771337,-0.055729 -0.205631,-0.059147 z M 2.9452367,3.3681084 c 0.00192,0.044089 0.00448,0.08861 0.0063,0.1057537 l 0.00416,0.036333 -0.1538368,0.1116613 c -0.084856,0.061362 -0.1540792,0.1127428 -0.1540151,0.1144788 3.726e-4,0.00728 0.026403,0.1063537 0.040378,0.1523948 0.0048,0.015895 0.00982,0.031546 0.01499,0.047034 0.00139,0.00452 0.0031,0.00893 0.00459,0.013407 0.00342,0.010036 0.00683,0.020074 0.010463,0.029986 0.00288,0.00795 0.00587,0.015858 0.00875,0.023758 0.00246,0.00669 0.00502,0.013464 0.00769,0.020143 0.00342,0.00862 0.00683,0.017205 0.010356,0.025776 0.00235,0.0057 0.0047,0.011378 0.00705,0.017042 0.00416,0.010121 0.00865,0.020274 0.013078,0.030387 0.00149,0.00332 0.00299,0.00663 0.00448,0.00998 0.00502,0.011171 0.010143,0.02238 0.015459,0.033588 0.00149,0.00307 0.00299,0.0062 0.00448,0.00934 0.00534,0.011171 0.010815,0.022393 0.016474,0.033657 0.00149,0.00307 0.0031,0.00614 0.00459,0.00916 0.00619,0.012142 0.012481,0.024372 0.019036,0.036696 0,7.46e-5 0,0 0,0 0.00598,0.011328 0.012011,0.022631 0.018385,0.034171 0.027321,0.049685 0.052293,0.092857 0.054855,0.096232 0.00544,0.00677 -0.016313,0.00931 0.3075253,-0.038783 l 0.071905,-0.010452 0.036833,0.045129 c 0.056958,0.069993 0.1261605,0.1428596 0.1935583,0.2045881 3.2e-6,6.9e-6 2.56e-5,-6.9e-6 3.31e-5,0 0.022463,0.020569 0.044713,0.03991 0.066247,0.057485 0.018673,0.015257 0.034538,0.029566 0.035328,0.031978 0.00117,0.00307 -0.049666,0.3311278 -0.056617,0.366853 -0.00149,0.0063 0.00459,0.011285 0.037698,0.030855 0.1341859,0.080276 0.2708252,0.1427131 0.4162711,0.1909233 0.072194,0.023947 0.1677161,0.04909 0.1745607,0.046378 0.00278,-0.00117 0.054674,-0.069204 0.1154115,-0.1515296 l 0.1102954,-0.1489278 0.015684,0.00117 c 0.00875,6.886e-4 0.03141,0.00299 0.050606,0.00491 0.026125,0.00299 0.057471,0.00512 0.090941,0.00651 V 4.3069142 C 4.4242706,4.2941452 4.2812745,4.2508515 4.1507346,4.1765044 c -0.016719,-0.00951 -0.033097,-0.019497 -0.049154,-0.029879 -0.0031,-0.00201 -0.00609,-0.0042 -0.00907,-0.0062 -0.012972,-0.00858 -0.025869,-0.017255 -0.038392,-0.02639 -0.00246,-0.00181 -0.0048,-0.00376 -0.00726,-0.00557 -0.012833,-0.00953 -0.025549,-0.01921 -0.03788,-0.029297 -0.00235,-0.00194 -0.00459,-0.00401 -0.00694,-0.00595 -0.012523,-0.010441 -0.024919,-0.021014 -0.036908,-0.03201 -4.099e-4,-6.891e-4 -8.146e-4,-8.144e-4 -0.00128,-0.00119 -0.013623,-0.012524 -0.026894,-0.02535 -0.039791,-0.038563 -3.715e-4,0 -4.089e-4,-6.891e-4 -7.516e-4,-8.145e-4 C 3.91024,3.9872339 3.897514,3.9734869 3.885204,3.9594089 3.860211,3.9308139 3.836819,3.9008599 3.815135,3.8697329 3.780085,3.8194029 3.749625,3.7659319 3.723948,3.7099513 3.716478,3.6937053 3.709503,3.6772463 3.702862,3.6606053 c -0.00149,-0.00369 -0.00299,-0.00745 -0.00448,-0.011209 -0.00331,-0.00847 -0.00651,-0.016992 -0.0095,-0.025556 -3.715e-4,-8.771e-4 -5.584e-4,-0.00175 -8.765e-4,-0.00263 -0.00374,-0.01072 -0.00737,-0.021502 -0.010783,-0.032367 -0.00192,-0.00627 -0.00384,-0.012575 -0.00577,-0.018883 -0.00395,-0.013546 -0.00779,-0.027154 -0.01121,-0.040907 -8.146e-4,-0.00345 -0.0016,-0.00683 -0.00246,-0.010271 -0.00384,-0.016264 -0.00747,-0.032611 -0.01057,-0.049133 -0.0063,-0.033851 -0.010676,-0.067838 -0.013516,-0.101861 z"
       style="fill:#f7c851;fill-opacity:1;stroke:none;stroke-width:0.000347347"
       id="path1872"
       inkscape:connector-curvature="0" />
    <path
       id="path1874"
       style="fill:#c7f4ec;fill-opacity:1;stroke:none;stroke-width:0.000347347"
       d="m 5.1236195,4.025651 c -0.00278,0.0012 -0.054663,0.069205 -0.1154126,0.1515301 l -0.1102954,0.1489357 -0.015684,-0.00113 c -0.00875,-6.893e-4 -0.03141,-0.00295 -0.050606,-0.00495 -0.023403,-0.00263 -0.050884,-0.00476 -0.080414,-0.00614 v 0.6897696 c 0.1413582,0.013901 0.2806037,0.05698 0.4079812,0.1295374 0.2634351,0.1499751 0.447675,0.4087019 0.5034579,0.7068586 0.0063,0.033865 0.010676,0.067859 0.013516,0.1018952 h 0.6885802 c -0.00192,-0.044104 -0.00448,-0.088635 -0.0063,-0.1057921 l -0.00416,-0.036332 0.1537995,-0.111662 C 6.5929355,5.6267996 6.6621963,5.575425 6.662129,5.5736879 6.6617575,5.566428 6.6357264,5.46733 6.6217617,5.421301 6.5818855,5.2904098 6.5329023,5.1754979 6.4618372,5.0468734 c -0.027321,-0.049688 -0.052293,-0.092863 -0.054855,-0.096237 -0.00544,-0.00673 0.016356,-0.00929 -0.3074916,0.038777 L 6.0275851,4.999876 5.990709,4.954747 C 5.914768,4.8614249 5.817075,4.763008 5.7309039,4.6926722 c -0.018673,-0.015257 -0.034538,-0.029563 -0.035317,-0.031965 -0.00117,-0.0031 0.049645,-0.3311265 0.056585,-0.3668521 0.00139,-0.00634 -0.00459,-0.01129 -0.037698,-0.030857 C 5.5802892,4.1827248 5.443683,4.1202426 5.2982357,4.072039 5.2260421,4.0480994 5.1305239,4.0229875 5.1236792,4.0256823 Z M 2.932188,6.0281754 c 0,0.01957 5.573e-4,0.039951 0.00139,0.061923 0.00203,0.051716 0.00534,0.1099868 0.00758,0.1304086 l 0.00416,0.036332 -0.1537995,0.1116962 c -0.084856,0.061368 -0.1541048,0.1123655 -0.1540482,0.1137534 3.716e-4,0.00694 0.02194,0.090557 0.034752,0.133508 0.047339,0.1618793 0.1152225,0.3156552 0.2051613,0.4647507 l 0.018961,0.031613 0.019356,-0.00246 c 0.010356,-0.00181 0.076389,-0.011349 0.1468768,-0.0221 0.070154,-0.010356 0.1462203,-0.021342 0.1686845,-0.024662 l 0.040773,-0.00609 0.041264,0.050531 c 0.022986,0.027951 0.057578,0.068286 0.077169,0.089425 0.03994,0.043634 0.1535678,0.1494018 0.1900938,0.1768284 0.013249,0.00993 0.024118,0.020616 0.024225,0.023392 0,0.0031 -0.012897,0.088091 -0.029125,0.1888328 -0.016228,0.1007422 -0.029349,0.1836559 -0.029339,0.1840051 0,0.00246 0.1078377,0.064272 0.1493687,0.086286 0.072738,0.037837 0.1886941,0.087888 0.2669398,0.1154137 0.0955,0.033129 0.2040969,0.0633 0.2136672,0.059115 0.00342,-0.00149 0.1937728,-0.2547381 0.222426,-0.2954855 0.00299,-0.00459 0.010249,-0.00459 0.054215,0 0.04372,0.0048 0.080211,0.00758 0.1164556,0.00918 V 7.0548222 C 4.3086274,7.0342168 4.0695537,6.9185736 3.8910537,6.7253837 3.7814662,6.6073053 3.6957307,6.4500563 3.6541366,6.2928201 3.631033,6.2050711 3.6195986,6.1163975 3.6195986,6.0281861 Z m 2.7430109,0.095628 C 5.6650564,6.2319349 5.637917,6.3384007 5.5939197,6.4395433 5.4433926,6.7836436 5.1262982,7.0141367 4.7512161,7.0534471 v 0.6892672 c 0.042343,-0.00203 0.082422,-0.00427 0.095949,-0.00587 l 0.031111,-0.00406 0.1116663,0.1537973 c 0.072023,0.099739 0.113431,0.1541027 0.1168859,0.1536223 V 8.04013 c 0.0031,0 0.025517,-0.00555 0.050286,-0.012032 C 5.3553541,7.977257 5.5260414,7.9062892 5.6979138,7.80329 L 5.7339248,7.781702 5.7311448,7.764075 C 5.7297605,7.7547871 5.7188813,7.6808106 5.7070305,7.5999285 5.6951797,7.5190444 5.6838414,7.4423016 5.681941,7.4295177 L 5.678201,7.4060187 5.728732,7.3647867 C 5.820698,7.2895927 5.9020607,7.2095673 5.97275,7.1237272 5.995,7.0971432 6.014644,7.0748612 6.017057,7.0740612 c 0.0031,-8.146e-4 0.3339038,0.050243 0.3671746,0.056585 0.0063,0.00149 0.011936,-0.00609 0.036727,-0.047681 0.084215,-0.1402522 0.1557361,-0.3033113 0.2024207,-0.4608603 0.014765,-0.04925 0.030139,-0.1096185 0.029851,-0.1172489 0,-0.00278 -0.066802,-0.054396 -0.1480641,-0.1148414 -0.080906,-0.060108 -0.148914,-0.1106295 -0.1507012,-0.111947 -0.00182,-0.00171 -6.192e-4,-0.024673 0.00246,-0.052944 0.00384,-0.037015 0.0063,-0.069482 0.00801,-0.1013934 z"
       inkscape:connector-curvature="0" />
    <path
       sodipodi:nodetypes="cscsc"
       inkscape:connector-curvature="0"
       id="path1914"
       d="m 10.388435,-2.5606099e-8 c 0,0 0.147441,2.973315125606099 0.149337,4.470204925606099 0.002,1.6196095 -0.149337,4.8399232 -0.149337,4.8399232 0,0 -0.151007,-3.1978603 -0.149343,-4.8063122 C 10.240694,2.9957702 10.388435,-2.5606101e-8 10.388435,-2.5606099e-8 Z"
       style="fill:#413bda;fill-opacity:1;stroke:none;stroke-width:0.133266;stroke-linecap:round;stroke-miterlimit:4;stroke-dasharray:none;stroke-dashoffset:0;stroke-opacity:1" />
    <g
       style="font-style:normal;font-variant:normal;font-weight:normal;font-stretch:normal;font-size:5.82769px;line-height:1.25;font-family:Primus;-inkscape-font-specification:Primus;text-align:center;letter-spacing:0px;word-spacing:0px;text-anchor:middle;fill:#413bda;fill-opacity:1;stroke:none;stroke-width:0.145694"
       id="text1172"
       aria-label="STEAM Center ">
      <path
         id="path929"
         style="font-style:normal;font-variant:normal;font-weight:normal;font-stretch:normal;font-family:'Gardens CM';-inkscape-font-specification:'Gardens CM';fill:#413bda;fill-opacity:1;stroke-width:0.145694"
         d="m 12.421813,6.8550206 q -0.740116,0 -1.130571,-0.6002521 -0.04662,-0.081588 -0.04662,-0.1515199 0,-0.046621 0.04079,-0.1165538 0.04662,-0.07576 0.163175,-0.07576 0.104899,0 0.203969,0.1223815 0.134037,0.2039692 0.314696,0.338006 0.180658,0.1340369 0.454559,0.1340369 0.413766,0 0.658529,-0.2622461 0.244763,-0.2680737 0.244763,-0.6818397 0,-0.3787999 -0.25059,-0.6352182 Q 12.82975,4.6696368 12.445122,4.6696368 h -0.0641 q -0.425422,0 -0.734289,-0.3030399 -0.308868,-0.3030399 -0.308868,-0.8100489 0,-0.4545598 0.30304,-0.7750828 0.30304,-0.3263506 0.78091,-0.3263506 0.641046,0 0.967397,0.5244921 0.02914,0.064105 0.02914,0.1107261 0,0.046622 -0.04662,0.1107261 -0.04079,0.064105 -0.163175,0.064105 -0.07576,0 -0.139865,-0.069932 Q 12.922995,3.0145728 12.777303,2.9096744 12.637438,2.804776 12.421813,2.804776 q -0.332178,0 -0.536147,0.2214522 -0.198141,0.2214522 -0.198141,0.5303198 0,0.1748307 0.06993,0.3554891 0.06993,0.1806584 0.221452,0.2913845 0.157348,0.1107261 0.407938,0.1107261 h 0.0641 q 0.244763,0 0.524492,0.1282092 0.279729,0.1223815 0.489526,0.4021106 0.215625,0.2797291 0.215625,0.7168059 0,0.5594583 -0.349662,0.9266027 -0.349661,0.3671445 -0.90912,0.3671445 z" />
      <path
         id="path931"
         style="font-style:normal;font-variant:normal;font-weight:normal;font-stretch:normal;font-family:'Gardens CM';-inkscape-font-specification:'Gardens CM';fill:#413bda;fill-opacity:1;stroke-width:0.145694"
         d="m 15.267365,6.7792606 q -0.08159,0 -0.134037,-0.052449 -0.05245,-0.052449 -0.05245,-0.1282092 V 2.973779 q 0,-0.046622 -0.01165,-0.058277 -0.01166,-0.017483 -0.05245,-0.017483 h -0.891637 q -0.07576,0 -0.128209,-0.052449 -0.05245,-0.052449 -0.05245,-0.1340369 0,-0.081588 0.05245,-0.1340368 0.05245,-0.052449 0.128209,-0.052449 h 2.284454 q 0.07576,0 0.12821,0.052449 0.05245,0.052449 0.05245,0.1340368 0,0.081588 -0.05245,0.1340369 -0.05245,0.052449 -0.12821,0.052449 h -0.879981 q -0.04079,0 -0.05828,0.017483 -0.01748,0.011655 -0.01748,0.046622 v 3.6364786 q 0,0.07576 -0.05245,0.1282092 -0.05245,0.052449 -0.134037,0.052449 z" />
      <path
         id="path933"
         style="font-style:normal;font-variant:normal;font-weight:normal;font-stretch:normal;font-family:'Gardens CM';-inkscape-font-specification:'Gardens CM';fill:#413bda;fill-opacity:1;stroke-width:0.145694"
         d="m 19.216263,6.7792606 h -2.097969 q -0.07576,0 -0.128209,-0.052449 -0.04662,-0.052449 -0.04662,-0.1282092 v -3.892897 q 0,-0.07576 0.04662,-0.1282091 0.05245,-0.052449 0.128209,-0.052449 h 1.987243 q 0.07576,0 0.128209,0.052449 0.05245,0.052449 0.05245,0.1340368 0,0.081588 -0.05245,0.1340369 -0.05245,0.052449 -0.128209,0.052449 h -1.713341 q -0.04079,0 -0.05828,0.017483 -0.01748,0.011655 -0.01748,0.046622 v 1.3753349 q 0,0.040794 0.01166,0.058277 0.01166,0.017483 0.05245,0.017483 h 1.503544 q 0.07576,0 0.12821,0.052449 0.05245,0.052449 0.05245,0.1340368 0,0.081588 -0.05245,0.1340369 -0.05245,0.052449 -0.12821,0.052449 h -1.491888 q -0.04079,0 -0.05828,0.011655 -0.01748,0.011655 -0.01748,0.052449 v 1.4802333 q 0,0.040794 0.01166,0.058277 0.01166,0.011655 0.05245,0.011655 h 1.835723 q 0.07576,0 0.128209,0.052449 0.05245,0.052449 0.05245,0.1340369 0,0.087415 -0.05245,0.1398645 -0.05245,0.052449 -0.128209,0.052449 z" />
      <path
         id="path935"
         style="font-style:normal;font-variant:normal;font-weight:normal;font-stretch:normal;font-family:'Gardens CM';-inkscape-font-specification:'Gardens CM';fill:#413bda;fill-opacity:1;stroke-width:0.145694"
         d="m 23.056984,6.7734329 q -0.110726,0 -0.169003,-0.1048984 l -0.448732,-1.072295 q -0.03497,-0.07576 -0.139865,-0.07576 h -1.742479 q -0.104899,0 -0.139865,0.093243 l -0.442904,1.0548119 q -0.05828,0.1048984 -0.169003,0.1048984 -0.03497,0 -0.07576,-0.017483 -0.116554,-0.046621 -0.116554,-0.1631753 0,-0.034966 0.01166,-0.069932 L 21.256228,2.635773 q 0.04662,-0.1107262 0.17483,-0.1107262 0.116554,0 0.174831,0.1107262 l 1.631753,3.8870693 q 0.01748,0.034966 0.01748,0.069932 0,0.1165538 -0.122381,0.1631753 -0.04079,0.017483 -0.07576,0.017483 z m -0.90912,-1.6317532 q 0.08159,0 0.08159,-0.040794 0,-0.017483 -0.01748,-0.052449 Q 22.194486,5.0076428 22.066277,4.6987753 21.938067,4.3899077 21.78072,4.0169355 L 21.483508,3.2943019 q -0.02331,-0.07576 -0.05245,-0.07576 -0.05828,0 -0.734289,1.7133409 -0.04662,0.1223815 -0.05245,0.1398645 -0.0058,0.011655 -0.0058,0.023311 0,0.046621 0.07576,0.046621 z" />
      <path
         id="path937"
         style="font-style:normal;font-variant:normal;font-weight:normal;font-stretch:normal;font-family:'Gardens CM';-inkscape-font-specification:'Gardens CM';fill:#413bda;fill-opacity:1;stroke-width:0.145694"
         d="m 26.970187,6.7792606 q -0.08742,0 -0.139865,-0.052449 -0.05245,-0.052449 -0.05245,-0.1282092 v -3.234368 q 0,-0.1165538 -0.02914,-0.1223815 -0.03497,0 -0.07576,0.052449 -0.32635,0.396283 -0.693495,0.8624982 L 25.51909,4.7162583 q -0.06411,0.052449 -0.134037,0.052449 -0.07576,0 -0.134037,-0.052449 -0.01165,-0.017483 -0.14569,-0.1748307 Q 24.977117,4.3782523 24.784803,4.1451447 24.598317,3.9120371 24.411831,3.6847572 24.225345,3.4516496 24.102963,3.3059573 q -0.04662,-0.052449 -0.06993,-0.052449 -0.04079,0 -0.04079,0.1107261 v 3.234368 q 0,0.07576 -0.05245,0.1282092 -0.05245,0.052449 -0.134037,0.052449 -0.08742,0 -0.139865,-0.052449 -0.05245,-0.052449 -0.05245,-0.1282092 v -3.892897 q 0,-0.07576 0.05245,-0.1282091 0.05245,-0.052449 0.128209,-0.052449 0.05828,0 0.08742,0.017483 0.03497,0.011655 0.04079,0.023311 0.01165,0.011655 0.01165,0.011655 0.0058,0 0.198141,0.2331076 0.192314,0.2272799 0.442905,0.5303198 0.250591,0.3030398 0.448732,0.5478028 0.203969,0.244763 0.244763,0.2913845 0.07576,0.099071 0.110726,0.099071 0.04662,0 0.145692,-0.1282092 0.08159,-0.093243 0.687668,-0.827532 l 0.623563,-0.751772 q 0.06993,-0.046622 0.139864,-0.046622 0.07576,0 0.128209,0.052449 0.05245,0.052449 0.05245,0.1282091 v 3.892897 q 0,0.07576 -0.05245,0.1282092 -0.05245,0.052449 -0.134036,0.052449 z" />
      <path
         id="path939"
         style="font-style:normal;font-variant:normal;font-weight:normal;font-stretch:normal;font-family:'Gardens CM';-inkscape-font-specification:'Gardens CM';fill:#413bda;fill-opacity:1;stroke-width:0.145694"
         d="m 32.193981,6.8550206 q -0.60608,0 -1.107261,-0.2972122 -0.501181,-0.2972122 -0.798393,-0.7983935 -0.297213,-0.5011814 -0.297213,-1.1072612 0,-0.6119074 0.297213,-1.1072611 0.297212,-0.5011813 0.798393,-0.7925658 0.501181,-0.2972122 1.107261,-0.2972122 0.413766,0 0.775083,0.1456922 0.361317,0.1456923 0.635218,0.3787999 0.05828,0.040794 0.05828,0.1223815 v 0.3729721 q 0,0.058277 -0.02914,0.058277 -0.02331,0 -0.04662,-0.029138 Q 33.347864,3.1835758 32.986547,2.9970897 32.62523,2.804776 32.193981,2.804776 q -0.757599,0 -1.293747,0.5478028 -0.536147,0.5419752 -0.536147,1.2995749 0,0.5011814 0.244763,0.9266028 0.25059,0.4195937 0.664356,0.676012 0.419594,0.2505907 0.920775,0.2505907 0.431249,0 0.792566,-0.1923138 0.361317,-0.1923137 0.600252,-0.5128367 0.02331,-0.029139 0.04662,-0.029139 0.02914,0 0.02914,0.052449 v 0.3729721 q 0,0.087415 -0.05828,0.1282092 -0.279729,0.244763 -0.641046,0.3904552 -0.355489,0.1398646 -0.769255,0.1398646 z" />
      <path
         id="path941"
         style="font-style:normal;font-variant:normal;font-weight:normal;font-stretch:normal;font-family:'Gardens CM';-inkscape-font-specification:'Gardens CM';fill:#413bda;fill-opacity:1;stroke-width:0.145694"
         d="m 35.477339,6.8550206 q -0.611907,0 -1.043156,-0.4312491 -0.431249,-0.431249 -0.431249,-1.0431565 0,-0.6119075 0.431249,-1.0373288 0.431249,-0.4254214 1.043156,-0.4254214 0.611908,0 1.043157,0.4254214 0.308868,0.3088675 0.367144,0.7459443 l 0.0058,0.040794 q 0,0.052449 -0.02914,0.1223815 -0.02914,0.069932 -0.15152,0.069932 h -2.232006 q -0.05828,0 -0.07576,0.023311 -0.01748,0.017483 -0.01748,0.058277 v 0.029138 q 0.03497,0.4370768 0.320523,0.7168059 0.355489,0.3554891 0.769255,0.3554891 0.221453,0 0.425422,-0.093243 0.209797,-0.099071 0.314695,-0.22728 0.139865,-0.1748307 0.233108,-0.1748307 0.05245,0 0.116554,0.034966 0.08159,0.064105 0.08159,0.1515199 0,0.07576 -0.05828,0.1456923 -0.437076,0.5128367 -1.113089,0.5128367 z m 0.897465,-1.9056547 q 0.08742,0 0.08742,-0.034966 0,-0.029139 -0.03497,-0.069932 v -0.00583 Q 36.368976,4.722086 36.246595,4.6113599 35.926072,4.2675262 35.477339,4.2675262 q -0.454559,0 -0.775082,0.3438337 -0.134037,0.1398646 -0.203969,0.2564184 -0.01748,0.034966 -0.01748,0.052449 0,0.011655 0.01166,0.023311 0.01748,0.00583 1.882344,0.00583 z" />
      <path
         id="path943"
         style="font-style:normal;font-variant:normal;font-weight:normal;font-stretch:normal;font-family:'Gardens CM';-inkscape-font-specification:'Gardens CM';fill:#413bda;fill-opacity:1;stroke-width:0.145694"
         d="m 39.5488,6.7792606 q -0.08159,0 -0.134036,-0.052449 -0.05245,-0.052449 -0.05245,-0.1282092 v -1.503544 q 0,-0.2913845 -0.128209,-0.4720429 -0.122381,-0.1806584 -0.314695,-0.2680738 -0.192314,-0.087415 -0.396283,-0.087415 -0.786738,0 -0.786738,0.7109782 v 1.6200978 q 0,0.07576 -0.05245,0.1282092 -0.05245,0.052449 -0.134037,0.052449 -0.08742,0 -0.139865,-0.052449 -0.05245,-0.052449 -0.05245,-0.1282092 l -0.0058,-2.4359744 q 0,-0.07576 0.05245,-0.1223815 0.05245,-0.052449 0.12821,-0.052449 0.08742,0 0.139864,0.046622 0.05828,0.046621 0.05828,0.1282092 v 0.017483 q 0,0.023311 0.02914,0.023311 0.01165,0 0.01748,-0.00583 0.268073,-0.2797291 0.745944,-0.2797291 0.268074,0 0.547803,0.099071 0.279729,0.099071 0.472043,0.3496614 0.192313,0.2505907 0.192313,0.7051505 v 1.5268548 q 0,0.07576 -0.05245,0.1282092 -0.05245,0.052449 -0.134037,0.052449 z" />
      <path
         id="path945"
         style="font-style:normal;font-variant:normal;font-weight:normal;font-stretch:normal;font-family:'Gardens CM';-inkscape-font-specification:'Gardens CM';fill:#413bda;fill-opacity:1;stroke-width:0.145694"
         d="m 40.928598,6.7792606 q -0.08159,0 -0.134037,-0.052449 -0.05245,-0.052449 -0.05245,-0.1282092 V 4.4307015 q 0,-0.069932 -0.0641,-0.069932 h -0.279729 q -0.07576,0 -0.128209,-0.052449 -0.05245,-0.052449 -0.05245,-0.1340369 0,-0.081588 0.05245,-0.1340368 0.05245,-0.052449 0.128209,-0.052449 h 0.273901 q 0.06993,0 0.06993,-0.093243 V 2.7057052 q 0,-0.07576 0.05245,-0.1282091 0.05245,-0.052449 0.134037,-0.052449 0.08159,0 0.134036,0.052449 0.05245,0.052449 0.05245,0.1282091 v 1.2063319 q 0,0.069932 0.06993,0.07576 h 0.273901 q 0.07576,0 0.12821,0.052449 0.05245,0.052449 0.05245,0.1340368 0,0.081588 -0.05245,0.1340369 -0.05245,0.052449 -0.12821,0.052449 h -0.192313 q -0.116554,0 -0.134037,0.011655 -0.01748,0.011655 -0.01748,0.052449 v 2.1737284 q 0,0.07576 -0.05245,0.1282092 -0.05245,0.052449 -0.134036,0.052449 z" />
      <path
         id="path947"
         style="font-style:normal;font-variant:normal;font-weight:normal;font-stretch:normal;font-family:'Gardens CM';-inkscape-font-specification:'Gardens CM';fill:#413bda;fill-opacity:1;stroke-width:0.145694"
         d="m 43.262768,6.8550206 q -0.611907,0 -1.043156,-0.4312491 -0.431249,-0.431249 -0.431249,-1.0431565 0,-0.6119075 0.431249,-1.0373288 0.431249,-0.4254214 1.043156,-0.4254214 0.611908,0 1.043157,0.4254214 0.308868,0.3088675 0.367144,0.7459443 l 0.0058,0.040794 q 0,0.052449 -0.02914,0.1223815 -0.02914,0.069932 -0.15152,0.069932 h -2.232006 q -0.05828,0 -0.07576,0.023311 -0.01748,0.017483 -0.01748,0.058277 v 0.029138 q 0.03497,0.4370768 0.320523,0.7168059 0.355489,0.3554891 0.769255,0.3554891 0.221453,0 0.425422,-0.093243 0.209797,-0.099071 0.314695,-0.22728 0.139865,-0.1748307 0.233108,-0.1748307 0.05245,0 0.116554,0.034966 0.08159,0.064105 0.08159,0.1515199 0,0.07576 -0.05828,0.1456923 -0.437076,0.5128367 -1.113089,0.5128367 z m 0.897465,-1.9056547 q 0.08742,0 0.08742,-0.034966 0,-0.029139 -0.03497,-0.069932 v -0.00583 Q 44.154405,4.722086 44.032024,4.6113599 43.711501,4.2675262 43.262768,4.2675262 q -0.454559,0 -0.775082,0.3438337 -0.134037,0.1398646 -0.203969,0.2564184 -0.01748,0.034966 -0.01748,0.052449 0,0.011655 0.01166,0.023311 0.01748,0.00583 1.882344,0.00583 z" />
      <path
         sodipodi:nodetypes="scsssscssscacscccscssccccss"
         id="path949"
         style="font-style:normal;font-variant:normal;font-weight:normal;font-stretch:normal;font-family:'Gardens CM';-inkscape-font-specification:'Gardens CM';fill:#413bda;fill-opacity:1;stroke-width:0.145694"
         d="m 45.323678,6.7792606 c -0.05439,0 -0.09907,-0.01554 -0.134037,-0.046621 -0.03497,-0.034966 -0.05245,-0.077702 -0.05245,-0.1282092 V 4.1684555 c 0,-0.050507 0.01748,-0.093243 0.05245,-0.1282092 0.03497,-0.034966 0.07965,-0.052449 0.134037,-0.052449 0.05439,0 0.09907,0.017483 0.134037,0.052449 0.03885,0.034966 0.05828,0.077702 0.05828,0.1282092 v 0.1806584 c 0,0.023311 0.0058,0.034966 0.01748,0.034966 0.01165,0 0.02331,-0.00583 0.03497,-0.017483 0.04662,-0.058277 0.168682,-0.1324203 0.260005,-0.1881377 0.101635,-0.062009 0.260286,-0.1265576 0.318563,-0.1615237 0.03108,-0.015541 0.06605,-0.023311 0.104898,-0.023311 0.01943,0 0.05051,0.00388 0.09324,0.011655 0.04273,0.00389 0.07964,0.031083 0.110726,0.081588 0,0.00389 0.0019,0.00583 0.0058,0.00583 0.01554,0.019425 0.02331,0.054392 0.02331,0.1048984 0,0.00777 -0.0019,0.027196 -0.0058,0.058277 0,0.031081 -0.02137,0.062162 -0.0641,0.093243 -0.04273,0.031081 -0.08216,0.062279 -0.122382,0.087415 -0.177419,0.110885 -0.52029,0.2253373 -0.625189,0.3496614 -0.101013,0.1204389 -0.15152,0.320523 -0.15152,0.6002521 l -0.0058,1.2179872 c 0,0.050507 -0.01748,0.093243 -0.05245,0.1282092 -0.03497,0.031081 -0.07965,0.046621 -0.134037,0.046621 z" />
    </g>
  </g>
</svg>
