<?xml version="1.0" encoding="UTF-8" standalone="no"?>
<svg
   xmlns:dc="http://purl.org/dc/elements/1.1/"
   xmlns:cc="http://creativecommons.org/ns#"
   xmlns:rdf="http://www.w3.org/1999/02/22-rdf-syntax-ns#"
   xmlns:svg="http://www.w3.org/2000/svg"
   xmlns="http://www.w3.org/2000/svg"
   xmlns:sodipodi="http://sodipodi.sourceforge.net/DTD/sodipodi-0.dtd"
   xmlns:inkscape="http://www.inkscape.org/namespaces/inkscape"
   width="20mm"
   height="20mm"
   viewBox="0 0 20 20"
   version="1.1"
   id="svg8"
   inkscape:version="1.0.2-2 (e86c870879, 2021-01-15)"
   sodipodi:docname="question.svg">
  <defs
     id="defs2" />
  <sodipodi:namedview
     id="base"
     pagecolor="#ffffff"
     bordercolor="#666666"
     borderopacity="1.0"
     inkscape:pageopacity="0.0"
     inkscape:pageshadow="2"
     inkscape:zoom="1.4"
     inkscape:cx="-58.820656"
     inkscape:cy="15.884291"
     inkscape:document-units="mm"
     inkscape:current-layer="layer1"
     inkscape:document-rotation="0"
     showgrid="false"
     inkscape:window-width="1920"
     inkscape:window-height="1001"
     inkscape:window-x="-11"
     inkscape:window-y="-11"
     inkscape:window-maximized="1" />
  <metadata
     id="metadata5">
    <rdf:RDF>
      <cc:Work
         rdf:about="">
        <dc:format>image/svg+xml</dc:format>
        <dc:type
           rdf:resource="http://purl.org/dc/dcmitype/StillImage" />
        <dc:title />
      </cc:Work>
    </rdf:RDF>
  </metadata>
  <g
     inkscape:label="Шар 1"
     inkscape:groupmode="layer"
     id="layer1">
    <path
       style="fill:#f47a62;stroke-width:0.0352939;fill-opacity:0.98039216"
       d="m 8.1655049,18.111777 v -1.888226 h 1.8882261 1.888225 v 1.888226 1.888225 H 10.053731 8.1655049 Z m -0.01067,-3.680307 c -0.04521,-0.9453 0.07293,-1.930707 0.315218,-2.629032 0.363614,-1.04803 0.995427,-1.789341 2.8189601,-3.3075038 1.056863,-0.879881 1.599437,-1.399445 1.776019,-1.700703 0.389408,-0.664346 0.434536,-1.565625 0.112489,-2.246593 -0.301759,-0.638068 -0.887302,-1.167138 -1.560728,-1.410202 -0.55704,-0.201057 -0.793005,-0.237655 -1.510127,-0.234222 -0.5894556,0.0028 -0.6871721,0.01226 -1.0050481,0.09705 -1.346957,0.359308 -2.182957,1.263594 -2.646282,2.862434 -0.05027,0.173481 -0.09807,0.322086 -0.10622,0.330234 -0.01465,0.01465 -0.7796819,-0.0737 -2.5247709,-0.291609 l -0.8999961,-0.112379 0.0094,-0.259585 c 0.01123,-0.308736 0.120116,-0.867319 0.240769,-1.235163 0.130523,-0.397938 0.5134381,-1.14017 0.7819811,-1.515773 0.698852,-0.977461 1.7262709,-1.778595 2.8582219,-2.2287056 1.778637,-0.70726 4.3202191,-0.734631 6.2389451,-0.06719 1.822867,0.6340966 3.366436,2.1664766 3.840811,3.8129696 0.141115,0.489795 0.181435,0.795837 0.181171,1.375162 -2.67e-4,0.597599 -0.05056,0.913065 -0.22951,1.439697 -0.106089,0.31221 -0.347425,0.783783 -0.563699,1.101467 -0.415717,0.610661 -1.335893,1.532953 -2.664064,2.6701978 -1.095199,0.937762 -1.532772,1.390512 -1.742662,1.803106 -0.161834,0.318126 -0.286346,1.130822 -0.286618,1.870782 l -1.21e-4,0.326469 H 9.8826704 8.1763659 Z"
       id="path26" />
    <path
       style="fill:#f7c851;stroke-width:0.0352939;fill-opacity:1"
       d="m 8.1655049,18.111777 v -1.888226 h 1.8882261 1.888225 v 1.888226 1.888225 H 10.053731 8.1655049 Z m -0.01067,-3.680307 c -0.04521,-0.9453 0.07293,-1.930707 0.315218,-2.629032 0.363614,-1.04803 0.995427,-1.789341 2.8189601,-3.3075038 1.056863,-0.879881 1.599437,-1.399445 1.776019,-1.700703 0.389408,-0.664346 0.434536,-1.565625 0.112489,-2.246593 -0.301759,-0.638068 -0.887302,-1.167138 -1.560728,-1.410202 -0.55704,-0.201057 -0.793005,-0.237655 -1.510127,-0.234222 -0.5894556,0.0028 -0.6871721,0.01226 -1.0050481,0.09705 -1.346957,0.359308 -2.182957,1.263594 -2.646282,2.862434 -0.05027,0.173481 -0.09807,0.322086 -0.10622,0.330234 -0.01465,0.01465 -0.7796819,-0.0737 -2.5247709,-0.291609 l -0.8999961,-0.112379 0.0094,-0.259585 c 0.01123,-0.308736 0.120116,-0.867319 0.240769,-1.235163 0.130523,-0.397938 0.5134381,-1.14017 0.7819811,-1.515773 0.698852,-0.977461 1.7262709,-1.778595 2.8582219,-2.2287056 1.778637,-0.70726 4.3202191,-0.734631 6.2389451,-0.06719 1.822867,0.6340966 3.366436,2.1664766 3.840811,3.8129696 0.141115,0.489795 0.181435,0.795837 0.181171,1.375162 -2.67e-4,0.597599 -0.05056,0.913065 -0.22951,1.439697 -0.106089,0.31221 -0.347425,0.783783 -0.563699,1.101467 -0.415717,0.610661 -1.335893,1.532953 -2.664064,2.6701978 -1.095199,0.937762 -1.532772,1.390512 -1.742662,1.803106 -0.161834,0.318126 -0.286346,1.130822 -0.286618,1.870782 l -1.21e-4,0.326469 H 9.8826704 8.1763659 Z"
       id="path851" />
  </g>
</svg>
